<svg width="926" height="1008" viewBox="0 0 926 1008" fill="none" xmlns="http://www.w3.org/2000/svg">
<path d="M470.07 517.024C505.224 498.346 530.568 477.268 526.677 469.944C522.785 462.62 491.133 471.825 455.979 490.502C420.824 509.18 395.481 530.259 399.372 537.582C403.263 544.906 434.916 535.702 470.07 517.024Z" stroke="url(#paint0_linear_3_58)" stroke-width="6" stroke-miterlimit="10"/>
<path d="M470.612 517.353C508.169 496.44 535.236 473.416 531.067 465.929C526.898 458.442 493.071 469.325 455.514 490.238C417.956 511.152 390.89 534.175 395.059 541.662C399.228 549.149 433.054 538.266 470.612 517.353Z" stroke="url(#paint1_linear_3_58)" stroke-width="6" stroke-miterlimit="10"/>
<path d="M471.312 517.578C511.453 494.213 540.385 469.073 535.934 461.428C531.484 453.782 495.336 466.525 455.196 489.89C415.056 513.255 386.124 538.395 390.574 546.04C395.025 553.686 431.172 540.943 471.312 517.578Z" stroke="url(#paint2_linear_3_58)" stroke-width="6" stroke-miterlimit="10"/>
<path d="M471.436 518.028C514.207 492.064 545.042 464.695 540.308 456.897C535.574 449.099 497.064 463.825 454.293 489.788C411.522 515.752 380.687 543.122 385.421 550.92C390.155 558.718 428.665 543.991 471.436 518.028Z" stroke="url(#paint3_linear_3_58)" stroke-width="6" stroke-miterlimit="10"/>
<path d="M472.231 518.264C517.687 489.541 550.466 459.815 545.445 451.869C540.424 443.923 499.504 460.766 454.049 489.489C408.593 518.212 375.814 547.938 380.835 555.884C385.856 563.83 426.776 546.987 472.231 518.264Z" stroke="url(#paint4_linear_3_58)" stroke-width="6" stroke-miterlimit="10"/>
<path d="M472.648 518.387C520.943 486.673 555.789 454.408 550.478 446.32C545.167 438.233 501.711 457.385 453.415 489.099C405.12 520.812 370.274 553.078 375.585 561.165C380.896 569.253 424.352 550.101 472.648 518.387Z" stroke="url(#paint5_linear_3_58)" stroke-width="6" stroke-miterlimit="10"/>
<path d="M473.081 519.011C524.254 484.148 561.133 449.127 555.452 440.788C549.772 432.45 503.683 453.952 452.509 488.815C401.336 523.677 364.457 558.699 370.137 567.037C375.818 575.376 421.908 553.874 473.081 519.011Z" stroke="url(#paint6_linear_3_58)" stroke-width="6" stroke-miterlimit="10"/>
<path d="M473.766 519.386C527.965 481.124 566.99 443.15 560.932 434.569C554.874 425.987 506.026 450.048 451.828 488.31C397.63 526.572 358.605 564.546 364.663 573.127C370.721 581.709 419.568 557.648 473.766 519.386Z" stroke="url(#paint7_linear_3_58)" stroke-width="6" stroke-miterlimit="10"/>
<path d="M474.636 519.685C531.775 477.931 572.873 436.936 566.43 428.12C559.988 419.303 508.445 446.004 451.306 487.758C394.166 529.512 353.068 570.508 359.511 579.324C365.953 588.14 417.497 561.439 474.636 519.685Z" stroke="url(#paint8_linear_3_58)" stroke-width="6" stroke-miterlimit="10"/>
<path d="M475.41 520.436C535.627 474.943 578.903 430.733 572.071 421.689C565.239 412.646 510.885 442.194 450.669 487.686C390.452 533.179 347.175 577.389 354.008 586.433C360.84 595.476 415.194 565.928 475.41 520.436Z" stroke="url(#paint9_linear_3_58)" stroke-width="6" stroke-miterlimit="10"/>
<path d="M476.511 520.696C539.926 471.19 585.403 423.461 578.088 414.091C570.773 404.72 513.435 437.256 450.02 486.762C386.605 536.268 341.128 583.996 348.443 593.367C355.758 602.738 413.096 570.201 476.511 520.696Z" stroke="url(#paint10_linear_3_58)" stroke-width="6" stroke-miterlimit="10"/>
<path d="M477.085 521.496C543.594 467.895 591.182 416.59 583.376 406.905C575.57 397.219 515.326 432.82 448.817 486.421C382.309 540.023 334.721 591.327 342.527 601.013C350.333 610.699 410.577 575.098 477.085 521.496Z" stroke="url(#paint11_linear_3_58)" stroke-width="6" stroke-miterlimit="10"/>
<path d="M477.789 521.913C547.499 463.936 597.275 408.84 588.967 398.851C580.66 388.862 517.414 427.764 447.705 485.74C377.995 543.717 328.219 598.813 336.527 608.802C344.834 618.791 408.08 579.889 477.789 521.913Z" stroke="url(#paint12_linear_3_58)" stroke-width="6" stroke-miterlimit="10"/>
<path d="M478.968 522.318C551.881 459.77 603.838 400.731 595.019 390.45C586.199 380.169 519.942 422.539 447.03 485.086C374.117 547.633 322.159 606.672 330.979 616.954C339.799 627.235 406.056 584.865 478.968 522.318Z" stroke="url(#paint13_linear_3_58)" stroke-width="6" stroke-miterlimit="10"/>
<path d="M480.199 523.176C556.405 455.779 610.537 392.498 601.105 381.833C591.673 371.168 522.25 417.158 446.043 484.555C369.836 551.952 315.705 615.233 325.137 625.898C334.568 636.563 403.992 590.572 480.199 523.176Z" stroke="url(#paint14_linear_3_58)" stroke-width="6" stroke-miterlimit="10"/>
<path d="M481.364 524.036C560.731 451.682 616.843 384.002 606.693 372.868C596.543 361.734 523.975 411.363 444.607 483.717C365.24 556.071 309.129 623.751 319.279 634.885C329.429 646.019 401.997 596.39 481.364 524.036Z" stroke="url(#paint15_linear_3_58)" stroke-width="6" stroke-miterlimit="10"/>
<path d="M482.899 524.712C565.401 447.19 623.459 374.955 612.574 363.371C601.688 351.786 525.983 405.239 443.48 482.76C360.977 560.282 302.92 632.517 313.805 644.102C324.69 655.686 400.396 602.234 482.899 524.712Z" stroke="url(#paint16_linear_3_58)" stroke-width="6" stroke-miterlimit="10"/>
<path d="M484.244 525.472C569.84 442.581 629.796 365.645 618.16 353.63C606.525 341.615 527.704 399.071 442.109 481.961C356.514 564.852 296.557 641.788 308.193 653.803C319.828 665.818 398.649 608.362 484.244 525.472Z" stroke="url(#paint17_linear_3_58)" stroke-width="6" stroke-miterlimit="10"/>
<path d="M485.611 526.626C574.345 438.067 636.147 356.124 623.65 343.602C611.152 331.079 529.087 392.719 440.352 481.278C351.617 569.837 289.815 651.78 302.313 664.303C314.811 676.825 396.876 615.185 485.611 526.626Z" stroke="url(#paint18_linear_3_58)" stroke-width="6" stroke-miterlimit="10"/>
<path d="M487.318 527.407C578.937 433.145 642.362 346.187 628.981 333.181C615.6 320.175 530.48 386.046 438.861 480.308C347.241 574.57 283.816 661.528 297.197 674.533C310.578 687.539 395.698 621.669 487.318 527.407Z" stroke="url(#paint19_linear_3_58)" stroke-width="6" stroke-miterlimit="10"/>
<path d="M489.198 528.421C583.719 428.139 648.603 335.777 634.119 322.125C619.635 308.473 531.268 378.701 436.746 478.983C342.225 579.265 277.341 671.627 291.825 685.279C306.309 698.931 394.676 628.703 489.198 528.421Z" stroke="url(#paint20_linear_3_58)" stroke-width="6" stroke-miterlimit="10"/>
<path d="M491.131 529.503C588.384 423.08 654.651 325.318 639.142 311.145C623.633 296.972 532.22 371.755 434.966 478.177C337.713 584.6 271.446 682.362 286.955 696.535C302.465 710.708 393.877 635.925 491.131 529.503Z" stroke="url(#paint21_linear_3_58)" stroke-width="6" stroke-miterlimit="10"/>
<path d="M493.253 530.477C593.035 417.781 660.333 314.389 643.568 299.545C626.804 284.702 532.324 364.027 432.542 476.724C332.76 589.421 265.462 692.813 282.226 707.656C298.991 722.5 393.471 643.174 493.253 530.477Z" stroke="url(#paint22_linear_3_58)" stroke-width="6" stroke-miterlimit="10"/>
<path d="M495.965 532.106C598.185 412.913 666.335 303.668 648.184 288.101C630.032 272.534 532.451 356.54 430.232 475.733C328.012 594.927 259.861 704.172 278.013 719.739C296.165 735.306 393.745 651.3 495.965 532.106Z" stroke="url(#paint23_linear_3_58)" stroke-width="6" stroke-miterlimit="10"/>
<path d="M498.322 533.313C602.655 407.594 671.368 292.512 651.798 276.271C632.227 260.029 531.784 348.778 427.451 474.498C323.118 600.217 254.404 715.299 273.975 731.54C293.545 747.781 393.989 659.032 498.322 533.313Z" stroke="url(#paint24_linear_3_58)" stroke-width="6" stroke-miterlimit="10"/>
<path d="M501.412 534.409C607.719 401.907 676.68 280.679 655.441 263.639C634.202 246.599 530.805 340.199 424.498 472.701C318.191 605.203 249.229 726.43 270.469 743.471C291.708 760.511 395.104 666.911 501.412 534.409Z" stroke="url(#paint25_linear_3_58)" stroke-width="6" stroke-miterlimit="10"/>
<path d="M504.718 536.071C612.678 396.777 681.51 269.373 658.458 251.507C635.406 233.641 529.2 332.077 421.24 471.371C313.281 610.665 244.449 738.069 267.501 755.935C290.553 773.802 396.759 675.365 504.718 536.071Z" stroke="url(#paint26_linear_3_58)" stroke-width="6" stroke-miterlimit="10"/>
<path d="M508.455 537.981C617.808 391.763 686.088 257.996 660.962 239.205C635.836 220.414 526.818 323.714 417.465 469.932C308.111 616.151 239.832 749.918 264.958 768.709C290.084 787.5 399.101 684.2 508.455 537.981Z" stroke="url(#paint27_linear_3_58)" stroke-width="6" stroke-miterlimit="10"/>
<path d="M512.249 539.368C622.547 386.298 689.871 246.293 662.621 226.657C635.371 207.022 523.867 315.192 413.569 468.262C303.271 621.331 235.948 761.337 263.198 780.972C290.447 800.607 401.952 692.438 512.249 539.368Z" stroke="url(#paint28_linear_3_58)" stroke-width="6" stroke-miterlimit="10"/>
<path d="M516.664 541.141C627.616 381.092 693.434 234.622 663.673 213.991C633.912 193.36 519.843 306.38 408.891 466.429C297.94 626.478 232.122 772.948 261.883 793.579C291.643 814.21 405.713 701.19 516.664 541.141Z" stroke="url(#paint29_linear_3_58)" stroke-width="6" stroke-miterlimit="10"/>
<path d="M521.929 542.891C633.156 375.83 696.927 222.827 664.366 201.148C631.806 179.47 515.243 297.325 404.017 464.386C292.79 631.447 229.019 784.45 261.579 806.128C294.14 827.807 410.703 709.951 521.929 542.891Z" stroke="url(#paint30_linear_3_58)" stroke-width="6" stroke-miterlimit="10"/>
<path d="M527.468 544.7C638.567 370.619 699.82 211.111 664.281 188.43C628.743 165.749 509.87 288.484 398.771 462.566C287.673 636.648 226.419 796.156 261.958 818.836C297.497 841.517 416.37 718.782 527.468 544.7Z" stroke="url(#paint31_linear_3_58)" stroke-width="6" stroke-miterlimit="10"/>
<path d="M533.8 546.822C644.196 365.949 702.031 200.001 662.978 176.164C623.924 152.328 502.771 279.63 392.375 460.502C281.978 641.375 224.143 807.324 263.197 831.16C302.25 854.997 423.403 727.694 533.8 546.822Z" stroke="url(#paint32_linear_3_58)" stroke-width="6" stroke-miterlimit="10"/>
<path d="M540.551 548.912C649.818 361.255 703.731 188.943 660.967 164.043C618.204 139.143 494.958 271.084 385.691 458.742C276.423 646.399 222.51 818.711 265.274 843.611C308.037 868.511 431.283 736.57 540.551 548.912Z" stroke="url(#paint33_linear_3_58)" stroke-width="6" stroke-miterlimit="10"/>
<path d="M547.935 550.928C655.53 356.615 704.624 177.981 657.587 151.935C610.551 125.89 485.197 262.297 377.601 456.609C270.005 650.922 220.912 829.557 267.948 855.602C314.985 881.647 440.339 745.24 547.935 550.928Z" stroke="url(#paint34_linear_3_58)" stroke-width="6" stroke-miterlimit="10"/>
<path d="M556.984 553.318C662.411 352.49 705.811 167.605 653.922 140.365C602.032 113.125 474.502 253.845 369.075 454.673C263.649 655.501 220.249 840.386 272.138 867.626C324.028 894.866 451.558 754.146 556.984 553.318Z" stroke="url(#paint35_linear_3_58)" stroke-width="6" stroke-miterlimit="10"/>
<path d="M566.731 555.225C669.365 348.154 706.183 157.3 648.966 128.94C591.749 100.581 462.164 245.455 359.529 452.527C256.895 659.598 220.077 850.452 277.294 878.812C334.511 907.171 464.096 762.297 566.731 555.225Z" stroke="url(#paint36_linear_3_58)" stroke-width="6" stroke-miterlimit="10"/>
<path d="M577.729 557.139C677.018 344.008 706.213 147.335 642.938 117.857C579.662 88.38 447.878 237.261 348.589 450.393C249.3 663.524 220.105 860.197 283.381 889.674C346.656 919.152 478.44 770.271 577.729 557.139Z" stroke="url(#paint37_linear_3_58)" stroke-width="6" stroke-miterlimit="10"/>
<path d="M589.511 558.919C684.827 340.071 705.39 137.962 635.44 107.496C565.49 77.0305 431.515 229.744 336.199 448.592C240.882 667.44 220.319 869.549 290.269 900.015C360.22 930.481 494.195 777.767 589.511 558.919Z" stroke="url(#paint38_linear_3_58)" stroke-width="6" stroke-miterlimit="10"/>
<path d="M603.467 560.87C694.224 336.664 704.857 129.433 627.218 98.0054C549.579 66.5778 413.067 222.855 322.311 447.061C231.555 671.266 220.921 878.498 298.561 909.926C376.2 941.353 512.711 785.076 603.467 560.87Z" stroke="url(#paint39_linear_3_58)" stroke-width="6" stroke-miterlimit="10"/>
<path d="M618.76 562.003C704.34 332.813 703.911 120.953 617.803 88.8005C531.695 56.6479 392.515 216.378 306.935 445.568C221.356 674.758 221.785 886.618 307.893 918.771C394.001 950.923 533.181 791.193 618.76 562.003Z" stroke="url(#paint40_linear_3_58)" stroke-width="6" stroke-miterlimit="10"/>
<path d="M636.279 563.127C716.11 329.39 703.209 113.399 607.465 80.6981C511.72 47.9973 369.387 210.97 289.557 444.708C209.726 678.445 222.626 894.436 318.371 927.137C414.116 959.838 556.448 796.865 636.279 563.127Z" stroke="url(#paint41_linear_3_58)" stroke-width="6" stroke-miterlimit="10"/>
<path d="M655.933 563.46C729.444 325.626 702.645 106.121 596.075 73.1819C489.505 40.2427 343.521 206.343 270.01 444.177C196.499 682.011 223.298 901.517 329.868 934.456C436.438 967.395 582.422 801.295 655.933 563.46Z" stroke="url(#paint42_linear_3_58)" stroke-width="6" stroke-miterlimit="10"/>
<path d="M677.673 563.14C744.356 321.591 702.181 99.2107 583.471 66.439C464.762 33.6674 314.471 202.915 247.788 444.464C181.105 686.013 223.28 908.394 341.989 941.165C460.699 973.937 610.989 804.689 677.673 563.14Z" stroke="url(#paint43_linear_3_58)" stroke-width="6" stroke-miterlimit="10"/>
<path d="M702.557 561.949C761.94 317.212 702.823 92.7877 570.514 60.684C438.205 28.5803 282.808 200.954 223.424 445.691C164.04 690.429 223.158 914.853 355.467 946.957C487.775 979.061 643.173 806.687 702.557 561.949Z" stroke="url(#paint44_linear_3_58)" stroke-width="6" stroke-miterlimit="10"/>
<path d="M729.968 559.531C781.588 312.193 703.876 86.7346 556.394 55.9545C408.911 25.1744 247.507 200.729 195.887 448.066C144.266 695.404 221.978 920.863 369.46 951.643C516.943 982.423 678.347 806.868 729.968 559.531Z" stroke="url(#paint45_linear_3_58)" stroke-width="6" stroke-miterlimit="10"/>
<path d="M760.96 555.879C804.487 306.294 706.322 80.6926 541.702 51.9831C377.083 23.2737 208.346 202.328 164.819 451.913C121.292 701.498 219.457 927.1 384.076 955.81C548.696 984.519 717.433 805.464 760.96 555.879Z" stroke="url(#paint46_linear_3_58)" stroke-width="6" stroke-miterlimit="10"/>
<path d="M795.34 550.095C830.462 298.756 710.117 74.2105 526.541 48.5574C342.966 22.9042 165.676 205.858 130.554 457.197C95.4313 708.535 215.776 933.081 399.352 958.734C582.928 984.387 760.217 801.433 795.34 550.095Z" stroke="url(#paint47_linear_3_58)" stroke-width="6" stroke-miterlimit="10"/>
<path d="M833.335 542.718C859.818 290.202 715.361 68.0954 510.681 46.6292C306.001 25.1631 118.607 212.466 92.1238 464.982C65.6407 717.499 210.098 939.605 414.777 961.072C619.457 982.538 806.852 795.234 833.335 542.718Z" stroke="url(#paint48_linear_3_58)" stroke-width="6" stroke-miterlimit="10"/>
<path d="M875.993 532.53C893.715 279.088 723.194 60.7057 495.125 44.7581C267.055 28.8105 67.8019 221.337 50.0802 474.778C32.3585 728.22 202.879 946.603 430.949 962.55C659.018 978.498 858.271 785.971 875.993 532.53Z" stroke="url(#paint49_linear_3_58)" stroke-width="6" stroke-miterlimit="10"/>
<path d="M463 963.814C717.051 963.814 923 757.865 923 503.814C923 249.763 717.051 43.8142 463 43.8142C208.949 43.8142 3 249.763 3 503.814C3 757.865 208.949 963.814 463 963.814Z" stroke="url(#paint50_linear_3_58)" stroke-width="6" stroke-miterlimit="10"/>
<defs>
<linearGradient id="paint0_linear_3_58" x1="455.979" y1="490.502" x2="470.07" y2="517.024" gradientUnits="userSpaceOnUse">
<stop stop-color="#231F20"/>
<stop offset="1" stop-color="#B5EAEA"/>
</linearGradient>
<linearGradient id="paint1_linear_3_58" x1="455.514" y1="490.238" x2="470.612" y2="517.353" gradientUnits="userSpaceOnUse">
<stop stop-color="#231F20"/>
<stop offset="1" stop-color="#B5EAEA"/>
</linearGradient>
<linearGradient id="paint2_linear_3_58" x1="455.196" y1="489.89" x2="471.312" y2="517.578" gradientUnits="userSpaceOnUse">
<stop stop-color="#231F20"/>
<stop offset="1" stop-color="#B5EAEA"/>
</linearGradient>
<linearGradient id="paint3_linear_3_58" x1="454.293" y1="489.789" x2="471.436" y2="518.028" gradientUnits="userSpaceOnUse">
<stop stop-color="#231F20"/>
<stop offset="1" stop-color="#B5EAEA"/>
</linearGradient>
<linearGradient id="paint4_linear_3_58" x1="454.049" y1="489.489" x2="472.231" y2="518.264" gradientUnits="userSpaceOnUse">
<stop stop-color="#231F20"/>
<stop offset="1" stop-color="#B5EAEA"/>
</linearGradient>
<linearGradient id="paint5_linear_3_58" x1="453.415" y1="489.099" x2="472.648" y2="518.387" gradientUnits="userSpaceOnUse">
<stop stop-color="#231F20"/>
<stop offset="1" stop-color="#B5EAEA"/>
</linearGradient>
<linearGradient id="paint6_linear_3_58" x1="452.509" y1="488.815" x2="473.081" y2="519.011" gradientUnits="userSpaceOnUse">
<stop stop-color="#231F20"/>
<stop offset="1" stop-color="#B5EAEA"/>
</linearGradient>
<linearGradient id="paint7_linear_3_58" x1="451.828" y1="488.31" x2="473.766" y2="519.386" gradientUnits="userSpaceOnUse">
<stop stop-color="#231F20"/>
<stop offset="1" stop-color="#B5EAEA"/>
</linearGradient>
<linearGradient id="paint8_linear_3_58" x1="451.305" y1="487.758" x2="474.636" y2="519.685" gradientUnits="userSpaceOnUse">
<stop stop-color="#231F20"/>
<stop offset="1" stop-color="#B5EAEA"/>
</linearGradient>
<linearGradient id="paint9_linear_3_58" x1="450.669" y1="487.686" x2="475.41" y2="520.436" gradientUnits="userSpaceOnUse">
<stop stop-color="#231F20"/>
<stop offset="1" stop-color="#B5EAEA"/>
</linearGradient>
<linearGradient id="paint10_linear_3_58" x1="450.02" y1="486.762" x2="476.511" y2="520.696" gradientUnits="userSpaceOnUse">
<stop stop-color="#231F20"/>
<stop offset="1" stop-color="#B5EAEA"/>
</linearGradient>
<linearGradient id="paint11_linear_3_58" x1="448.817" y1="486.421" x2="477.085" y2="521.496" gradientUnits="userSpaceOnUse">
<stop stop-color="#231F20"/>
<stop offset="1" stop-color="#B5EAEA"/>
</linearGradient>
<linearGradient id="paint12_linear_3_58" x1="447.705" y1="485.74" x2="477.789" y2="521.913" gradientUnits="userSpaceOnUse">
<stop stop-color="#231F20"/>
<stop offset="1" stop-color="#B5EAEA"/>
</linearGradient>
<linearGradient id="paint13_linear_3_58" x1="447.03" y1="485.086" x2="478.968" y2="522.318" gradientUnits="userSpaceOnUse">
<stop stop-color="#231F20"/>
<stop offset="1" stop-color="#B5EAEA"/>
</linearGradient>
<linearGradient id="paint14_linear_3_58" x1="446.043" y1="484.555" x2="480.199" y2="523.176" gradientUnits="userSpaceOnUse">
<stop stop-color="#231F20"/>
<stop offset="1" stop-color="#B5EAEA"/>
</linearGradient>
<linearGradient id="paint15_linear_3_58" x1="444.607" y1="483.717" x2="481.364" y2="524.036" gradientUnits="userSpaceOnUse">
<stop stop-color="#231F20"/>
<stop offset="1" stop-color="#B5EAEA"/>
</linearGradient>
<linearGradient id="paint16_linear_3_58" x1="443.48" y1="482.76" x2="482.899" y2="524.712" gradientUnits="userSpaceOnUse">
<stop stop-color="#231F20"/>
<stop offset="1" stop-color="#B5EAEA"/>
</linearGradient>
<linearGradient id="paint17_linear_3_58" x1="442.109" y1="481.961" x2="484.244" y2="525.472" gradientUnits="userSpaceOnUse">
<stop stop-color="#231F20"/>
<stop offset="1" stop-color="#B5EAEA"/>
</linearGradient>
<linearGradient id="paint18_linear_3_58" x1="440.352" y1="481.278" x2="485.611" y2="526.626" gradientUnits="userSpaceOnUse">
<stop stop-color="#231F20"/>
<stop offset="1" stop-color="#B5EAEA"/>
</linearGradient>
<linearGradient id="paint19_linear_3_58" x1="438.861" y1="480.308" x2="487.318" y2="527.407" gradientUnits="userSpaceOnUse">
<stop stop-color="#231F20"/>
<stop offset="1" stop-color="#B5EAEA"/>
</linearGradient>
<linearGradient id="paint20_linear_3_58" x1="436.746" y1="478.983" x2="489.198" y2="528.421" gradientUnits="userSpaceOnUse">
<stop stop-color="#231F20"/>
<stop offset="1" stop-color="#B5EAEA"/>
</linearGradient>
<linearGradient id="paint21_linear_3_58" x1="434.966" y1="478.177" x2="491.131" y2="529.503" gradientUnits="userSpaceOnUse">
<stop stop-color="#231F20"/>
<stop offset="1" stop-color="#B5EAEA"/>
</linearGradient>
<linearGradient id="paint22_linear_3_58" x1="432.542" y1="476.724" x2="493.253" y2="530.477" gradientUnits="userSpaceOnUse">
<stop stop-color="#231F20"/>
<stop offset="1" stop-color="#B5EAEA"/>
</linearGradient>
<linearGradient id="paint23_linear_3_58" x1="430.232" y1="475.733" x2="495.965" y2="532.106" gradientUnits="userSpaceOnUse">
<stop stop-color="#231F20"/>
<stop offset="1" stop-color="#B5EAEA"/>
</linearGradient>
<linearGradient id="paint24_linear_3_58" x1="427.451" y1="474.498" x2="498.322" y2="533.313" gradientUnits="userSpaceOnUse">
<stop stop-color="#231F20"/>
<stop offset="1" stop-color="#B5EAEA"/>
</linearGradient>
<linearGradient id="paint25_linear_3_58" x1="424.498" y1="472.701" x2="501.412" y2="534.409" gradientUnits="userSpaceOnUse">
<stop stop-color="#231F20"/>
<stop offset="1" stop-color="#B5EAEA"/>
</linearGradient>
<linearGradient id="paint26_linear_3_58" x1="421.24" y1="471.371" x2="504.718" y2="536.071" gradientUnits="userSpaceOnUse">
<stop stop-color="#231F20"/>
<stop offset="1" stop-color="#B5EAEA"/>
</linearGradient>
<linearGradient id="paint27_linear_3_58" x1="417.465" y1="469.932" x2="508.455" y2="537.981" gradientUnits="userSpaceOnUse">
<stop stop-color="#231F20"/>
<stop offset="1" stop-color="#B5EAEA"/>
</linearGradient>
<linearGradient id="paint28_linear_3_58" x1="413.569" y1="468.262" x2="512.249" y2="539.368" gradientUnits="userSpaceOnUse">
<stop stop-color="#231F20"/>
<stop offset="1" stop-color="#B5EAEA"/>
</linearGradient>
<linearGradient id="paint29_linear_3_58" x1="408.891" y1="466.429" x2="516.664" y2="541.141" gradientUnits="userSpaceOnUse">
<stop stop-color="#231F20"/>
<stop offset="1" stop-color="#B5EAEA"/>
</linearGradient>
<linearGradient id="paint30_linear_3_58" x1="404.017" y1="464.386" x2="521.929" y2="542.891" gradientUnits="userSpaceOnUse">
<stop stop-color="#231F20"/>
<stop offset="1" stop-color="#B5EAEA"/>
</linearGradient>
<linearGradient id="paint31_linear_3_58" x1="398.771" y1="462.566" x2="527.468" y2="544.7" gradientUnits="userSpaceOnUse">
<stop stop-color="#231F20"/>
<stop offset="1" stop-color="#B5EAEA"/>
</linearGradient>
<linearGradient id="paint32_linear_3_58" x1="392.375" y1="460.503" x2="533.799" y2="546.822" gradientUnits="userSpaceOnUse">
<stop stop-color="#231F20"/>
<stop offset="1" stop-color="#B5EAEA"/>
</linearGradient>
<linearGradient id="paint33_linear_3_58" x1="385.691" y1="458.742" x2="540.551" y2="548.912" gradientUnits="userSpaceOnUse">
<stop stop-color="#231F20"/>
<stop offset="1" stop-color="#B5EAEA"/>
</linearGradient>
<linearGradient id="paint34_linear_3_58" x1="377.601" y1="456.61" x2="547.934" y2="550.928" gradientUnits="userSpaceOnUse">
<stop stop-color="#231F20"/>
<stop offset="1" stop-color="#B5EAEA"/>
</linearGradient>
<linearGradient id="paint35_linear_3_58" x1="369.075" y1="454.673" x2="556.984" y2="553.318" gradientUnits="userSpaceOnUse">
<stop stop-color="#231F20"/>
<stop offset="1" stop-color="#B5EAEA"/>
</linearGradient>
<linearGradient id="paint36_linear_3_58" x1="359.529" y1="452.527" x2="566.73" y2="555.225" gradientUnits="userSpaceOnUse">
<stop stop-color="#231F20"/>
<stop offset="1" stop-color="#B5EAEA"/>
</linearGradient>
<linearGradient id="paint37_linear_3_58" x1="348.589" y1="450.393" x2="577.729" y2="557.139" gradientUnits="userSpaceOnUse">
<stop stop-color="#231F20"/>
<stop offset="1" stop-color="#B5EAEA"/>
</linearGradient>
<linearGradient id="paint38_linear_3_58" x1="336.199" y1="448.592" x2="589.511" y2="558.919" gradientUnits="userSpaceOnUse">
<stop stop-color="#231F20"/>
<stop offset="1" stop-color="#B5EAEA"/>
</linearGradient>
<linearGradient id="paint39_linear_3_58" x1="322.311" y1="447.061" x2="603.467" y2="560.87" gradientUnits="userSpaceOnUse">
<stop stop-color="#231F20"/>
<stop offset="1" stop-color="#B5EAEA"/>
</linearGradient>
<linearGradient id="paint40_linear_3_58" x1="306.935" y1="445.568" x2="618.76" y2="562.003" gradientUnits="userSpaceOnUse">
<stop stop-color="#231F20"/>
<stop offset="1" stop-color="#B5EAEA"/>
</linearGradient>
<linearGradient id="paint41_linear_3_58" x1="289.556" y1="444.708" x2="636.279" y2="563.128" gradientUnits="userSpaceOnUse">
<stop stop-color="#231F20"/>
<stop offset="1" stop-color="#B5EAEA"/>
</linearGradient>
<linearGradient id="paint42_linear_3_58" x1="270.01" y1="444.177" x2="655.933" y2="563.46" gradientUnits="userSpaceOnUse">
<stop stop-color="#231F20"/>
<stop offset="1" stop-color="#B5EAEA"/>
</linearGradient>
<linearGradient id="paint43_linear_3_58" x1="247.788" y1="444.464" x2="677.673" y2="563.14" gradientUnits="userSpaceOnUse">
<stop stop-color="#231F20"/>
<stop offset="1" stop-color="#B5EAEA"/>
</linearGradient>
<linearGradient id="paint44_linear_3_58" x1="223.424" y1="445.692" x2="702.557" y2="561.949" gradientUnits="userSpaceOnUse">
<stop stop-color="#231F20"/>
<stop offset="1" stop-color="#B5EAEA"/>
</linearGradient>
<linearGradient id="paint45_linear_3_58" x1="195.887" y1="448.066" x2="729.968" y2="559.531" gradientUnits="userSpaceOnUse">
<stop stop-color="#231F20"/>
<stop offset="1" stop-color="#B5EAEA"/>
</linearGradient>
<linearGradient id="paint46_linear_3_58" x1="164.819" y1="451.913" x2="760.96" y2="555.879" gradientUnits="userSpaceOnUse">
<stop stop-color="#231F20"/>
<stop offset="1" stop-color="#B5EAEA"/>
</linearGradient>
<linearGradient id="paint47_linear_3_58" x1="130.554" y1="457.197" x2="795.34" y2="550.095" gradientUnits="userSpaceOnUse">
<stop stop-color="#231F20"/>
<stop offset="1" stop-color="#B5EAEA"/>
</linearGradient>
<linearGradient id="paint48_linear_3_58" x1="92.1238" y1="464.983" x2="833.335" y2="542.718" gradientUnits="userSpaceOnUse">
<stop stop-color="#231F20"/>
<stop offset="1" stop-color="#B5EAEA"/>
</linearGradient>
<linearGradient id="paint49_linear_3_58" x1="50.0802" y1="474.778" x2="875.993" y2="532.53" gradientUnits="userSpaceOnUse">
<stop stop-color="#231F20"/>
<stop offset="1" stop-color="#B5EAEA"/>
</linearGradient>
<linearGradient id="paint50_linear_3_58" x1="463" y1="43.8142" x2="463" y2="963.814" gradientUnits="userSpaceOnUse">
<stop stop-color="#231F20"/>
<stop offset="1" stop-color="#B5EAEA"/>
</linearGradient>
</defs>
</svg>
