<svg width="2552" height="3127" viewBox="0 0 2552 3127" fill="none" xmlns="http://www.w3.org/2000/svg">
<path fill-rule="evenodd" clip-rule="evenodd" d="M1966.08 1650.72C1966.08 1650.72 2221.41 2037.36 2472.81 2160.6C2667.8 2255.35 2451.39 2827.34 2347.21 3073.83C2317.53 3143.41 2277.04 3141.45 2234.78 3082.09C2154.58 2969.46 1994.97 2737.12 1742.98 2737.12H808.521C556.332 2737.12 396.723 2969.46 316.722 3082.09C274.462 3141.45 233.577 3143.41 204.289 3073.83C100.111 2827.15 -116.304 2255.35 78.4889 2160.6C330.089 2037.36 585.423 1650.72 585.423 1650.72H1966.08Z" fill="url(#paint0_angular_417_3)"/>
<path fill-rule="evenodd" clip-rule="evenodd" d="M1999.3 1772.8C1928.15 1164.24 1686.38 199.904 1386.82 6.68312C1351.66 2.38914 1316.28 0.157611 1280.87 0C1244.7 0 1209.71 2.55531 1174.53 6.68312C874.967 199.904 632.999 1164.44 562.04 1772.8C548.281 1891.52 540.812 1997.47 540.812 2080.42C540.812 2380.17 636.93 2600.32 788.48 2740.28H1773.26C1924.81 2600.13 2020.93 2380.17 2020.93 2080.42C2019.37 1977.56 2012.15 1874.86 1999.3 1772.8V1772.8ZM1273.6 777.797C1312.33 777.81 1350.68 785.452 1386.46 800.286C1422.24 815.12 1454.74 836.856 1482.12 864.253C1509.5 891.65 1531.22 924.172 1546.03 959.96C1560.84 995.749 1568.45 1034.11 1568.44 1072.84C1568.43 1111.57 1560.78 1149.92 1545.95 1185.7C1531.12 1221.48 1509.38 1253.99 1481.98 1281.36C1454.59 1308.74 1422.07 1330.46 1386.28 1345.27C1350.49 1360.08 1312.13 1367.69 1273.4 1367.68C1195.18 1367.65 1120.17 1336.56 1064.87 1281.22C1009.58 1225.89 978.53 1150.86 978.556 1072.64C978.582 994.417 1009.68 919.408 1065.01 864.114C1120.34 808.82 1195.37 777.771 1273.6 777.797Z" fill="url(#paint1_angular_417_3)"/>
<defs>
<radialGradient id="paint0_angular_417_3" cx="0" cy="0" r="1" gradientUnits="userSpaceOnUse" gradientTransform="translate(1275.72 2388.53) rotate(90) scale(737.811 1275.72)">
<stop/>
<stop offset="0.125" stop-opacity="0.875"/>
<stop offset="1" stop-opacity="0"/>
</radialGradient>
<radialGradient id="paint1_angular_417_3" cx="0" cy="0" r="1" gradientUnits="userSpaceOnUse" gradientTransform="translate(1280.87 1370.14) rotate(90) scale(1370.14 740.057)">
<stop/>
<stop offset="0.125" stop-opacity="0.875"/>
<stop offset="1" stop-opacity="0"/>
</radialGradient>
</defs>
</svg>
