<svg width="2961" height="2458" viewBox="0 0 2961 2458" fill="none" xmlns="http://www.w3.org/2000/svg">
<path d="M174.716 1851.5L1238.5 61.7859L2302.28 1851.5H174.716Z" stroke="#817034" stroke-width="10"/>
<line x1="1241.64" y1="48.9943" x2="2905.15" y2="1509.69" stroke="#817034" stroke-width="8"/>
<line x1="2904.46" y1="1515.62" x2="2304.7" y2="1850.05" stroke="#817034" stroke-width="6"/>
<path d="M2221 834.5C2221 861.541 2196.47 884 2165.5 884C2134.53 884 2110 861.541 2110 834.5C2110 807.459 2134.53 785 2165.5 785C2196.47 785 2221 807.459 2221 834.5Z" fill="#F9C6D1" stroke="#F9C6D1" stroke-width="6"/>
<path d="M1294 52.5C1294 79.541 1269.47 102 1238.5 102C1207.53 102 1183 79.541 1183 52.5C1183 25.459 1207.53 3 1238.5 3C1269.47 3 1294 25.459 1294 52.5Z" fill="#F9C6D1" stroke="#F9C6D1" stroke-width="6"/>
<path d="M235 1847.5C235 1874.54 210.465 1897 179.5 1897C148.535 1897 124 1874.54 124 1847.5C124 1820.46 148.535 1798 179.5 1798C210.465 1798 235 1820.46 235 1847.5Z" fill="#F9C6D1" stroke="#F9C6D1" stroke-width="6"/>
<path d="M2358 1847.5C2358 1874.54 2333.47 1897 2302.5 1897C2271.53 1897 2247 1874.54 2247 1847.5C2247 1820.46 2271.53 1798 2302.5 1798C2333.47 1798 2358 1820.46 2358 1847.5Z" fill="#F9C6D1" stroke="#F9C6D1" stroke-width="6"/>
<path d="M2958 1513.5C2958 1540.54 2933.47 1563 2902.5 1563C2871.53 1563 2847 1540.54 2847 1513.5C2847 1486.46 2871.53 1464 2902.5 1464C2933.47 1464 2958 1486.46 2958 1513.5Z" fill="#F9C6D1" stroke="#F9C6D1" stroke-width="6"/>
<path d="M1865 1025.5C1865 1052.54 1840.47 1075 1809.5 1075C1778.53 1075 1754 1052.54 1754 1025.5C1754 998.459 1778.53 976 1809.5 976C1840.47 976 1865 998.459 1865 1025.5Z" fill="#F9C6D1" stroke="#F9C6D1" stroke-width="6"/>
<path d="M712 1025.5C712 1052.54 687.465 1075 656.5 1075C625.535 1075 601 1052.54 601 1025.5C601 998.459 625.535 976 656.5 976C687.465 976 712 998.459 712 1025.5Z" fill="#F9C6D1" stroke="#F9C6D1" stroke-width="6"/>
</svg>
