<svg width="1280" height="640" viewBox="0 0 1280 640" fill="none" xmlns="http://www.w3.org/2000/svg">
<g clip-path="url(#clip0_409_36)">
<g clip-path="url(#clip1_409_36)">
<path d="M55.2907 437.43C59.5778 435.796 65.141 431.151 67.5099 427.232C69.3851 424.117 69.9365 418.013 68.5206 416.024C65.2841 411.449 55.9748 410.324 48.8013 413.681C43.819 415.921 37.7726 422.669 36.906 426.876C34.9786 435.992 44.4221 441.417 55.2907 437.43Z" fill="black"/>
<path d="M539.352 430.573C543.638 428.839 549.995 423.388 551.866 419.773C554.919 413.849 553.769 407.558 549.251 405.294C541.318 401.257 527.962 406.763 523.335 416.001C519.102 424.435 522.355 431.009 531.059 431.54C533.761 431.718 537.457 431.289 539.352 430.573Z" fill="black"/>
<path d="M998.917 424.312C1011.49 421.112 1019.68 407.046 1012.73 400.701C1007.49 395.943 997.998 396.819 989.944 402.683C986.564 405.21 982.319 412.144 982.343 415.144C982.403 422.644 989.634 426.586 998.917 424.312Z" fill="black"/>
<path d="M19.861 421.311C20.9594 421.103 23.5537 420.382 25.6497 419.865C30.14 418.629 37.6872 411.969 39.0561 408.058C40.2273 404.448 38.4852 399.162 35.1654 396.689C28.4266 391.842 15.2445 394.147 7.80209 401.407C0.65728 408.364 0.716227 415.764 8.14626 419.505C11.4597 421.178 17.0667 422.034 19.861 421.311Z" fill="black"/>
<path d="M504.836 416.247C513.319 414.08 521.364 407.116 522.615 401.005C525.012 388.086 503.684 384.656 491.875 396.05C483.339 404.218 484.813 413.407 494.935 416.126C499.244 417.292 500.444 417.282 504.836 416.247Z" fill="black"/>
<path d="M966.381 407.471C981.36 404.851 990.157 391.781 982.097 384.345C974.945 377.802 959.964 380.221 952.333 388.982C943.315 399.354 951.4 409.99 966.381 407.471Z" fill="black"/>
<path d="M93.3111 414.726C99.6958 412.775 102.86 408.25 101.716 402.759C101.401 400.861 99.5635 396.176 97.6325 392.291C92.8546 382.529 92.4275 379.132 94.851 369.512C97.7609 358.189 97.5346 354.891 93.7052 351.221C90.983 348.443 90.2814 348.248 85.9864 348.882C79.7929 349.732 72.2314 354.592 63.3002 363.264C54.8658 371.531 52.0081 376.854 52.071 384.754C52.1507 394.753 58.2174 403.105 69.1609 408.518C77.2933 412.554 89.9192 415.753 93.3111 414.726Z" fill="black"/>
<path d="M578.943 404.156C582.231 402.63 585.195 398.106 585.165 394.406C585.156 393.207 583.726 389.518 581.899 386.132C575.096 373.186 574.789 372.388 574.844 366.688C574.819 363.588 575.287 359.484 575.872 357.579C577.136 353.069 577.079 345.969 575.658 343.381C575.05 342.285 573.138 340.801 571.232 340.116C564.811 337.467 556.845 341.73 545.243 354.123C532.846 367.122 530.612 375.44 536.402 386.695C537.621 389.085 540.047 392.366 541.96 393.951C551.124 401.878 571.469 407.516 578.943 404.156Z" fill="black"/>
<path d="M1041.92 399.869C1045.11 398.543 1047.58 394.124 1047.44 390.024C1047.33 388.125 1045.59 382.939 1043.45 378.556C1038.78 368.793 1037.92 362.299 1040.46 354.779C1044.47 342.447 1041.71 334.868 1033.21 334.936C1022.21 335.024 1001.05 353.393 997.848 365.519C994.936 376.642 1002.44 389.083 1015.68 395.178C1026.32 400.093 1036.84 402.009 1041.92 399.869Z" fill="black"/>
<path d="M25.8923 387.561C31.1786 385.819 33.8594 383.397 35.7251 379.082C36.9019 376.173 36.8955 375.373 35.3709 372.285C29.5755 360.331 5.96508 359.119 -0.545492 370.371C-6.66165 380.92 11.231 392.478 25.8923 387.561Z" fill="black"/>
<path d="M506.072 383.036C512.755 380.883 518.011 375.341 517.969 370.141C517.948 367.441 513.407 362.377 508.789 360.114C504.472 357.948 495.769 357.618 489.682 359.266C485.092 360.603 480.33 365.341 479.462 369.348C477.536 378.664 493.502 386.937 506.072 383.036Z" fill="black"/>
<path d="M969.519 374.545C977.303 372.483 981.965 367.745 981.919 361.945C981.877 356.646 973.626 350.311 965.116 349.079C954.804 347.661 943.852 353.648 943.908 360.748C943.946 365.548 947.082 370.023 952.201 372.383C957.12 374.743 965.129 375.78 969.519 374.545Z" fill="black"/>
<path d="M54.6903 362.031C59.4719 359.692 61.3376 355.377 59.8994 350.589C57.7437 343.606 49.6049 338.77 39.9052 338.848C30.5055 338.923 24.3495 344.472 26.2036 351.257C28.68 360.838 44.8297 367.009 54.6903 362.031Z" fill="black"/>
<path d="M533.357 355.918C537.045 354.389 540.21 349.963 540.183 346.564C540.121 338.864 530.87 332.437 520.071 332.623C510.072 332.803 503.518 338.555 505.373 345.541C506.405 349.533 511.745 354.49 516.556 355.852C521.067 357.216 530.367 357.242 533.357 355.918Z" fill="black"/>
<path d="M999.414 348.805C1008.28 344.834 1007.6 333.939 998.15 328.214C993.126 325.154 981.419 324.347 976.838 326.784C972.755 328.916 970.393 333.635 971.224 337.529C973.297 346.713 989.649 353.183 999.414 348.805Z" fill="black"/>
<path d="M773.089 346.509C783.36 342.827 787.876 332.29 781.629 326.44C775.583 320.688 762.596 322.292 754.954 329.653C751.282 333.182 750.692 334.387 750.719 337.787C750.754 342.186 753.182 345.667 757.494 347.233C761.005 348.505 768.602 348.145 773.089 346.509Z" fill="black"/>
<path d="M812.391 333.995C815.386 333.371 819.352 329.14 819.926 325.835C820.214 324.333 819.47 318.838 818.329 313.647C815.737 302.068 816.11 298.765 821.231 288.724C825.76 279.787 826.223 275.183 823.192 271.307C819.151 266.239 810.059 267.212 796.215 274.322C780.878 282.245 773.454 291.804 774.737 302.294C775.801 310.286 780.16 317.652 787.104 323.196C796.161 330.325 806.999 335.038 812.391 333.995Z" fill="black"/>
<path d="M283.69 336.006C294.363 332.621 301.089 323.267 297.141 317.299C294.307 313.021 290.996 311.647 284.196 311.701C269.997 311.815 258.993 323.903 265.559 332.251C268.69 336.126 277.405 337.956 283.69 336.006Z" fill="black"/>
<path d="M1223.13 324.223C1230.51 321.564 1236.25 314.018 1234.9 308.829C1233.97 305.136 1229.05 301.575 1223.74 300.817C1213.23 299.301 1200.49 307.303 1200.55 315.403C1200.59 319.602 1203.12 323.082 1207.33 324.649C1210.54 325.823 1219.34 325.553 1223.13 324.223Z" fill="black"/>
<path d="M744.41 324.136C750.001 322.991 755.274 319.649 757.643 315.73C759.913 311.912 759.904 310.812 757.87 306.528C753.192 296.765 732.19 296.632 724.167 306.296C715.649 316.564 728.137 327.565 744.41 324.136Z" fill="black"/>
<path d="M329.463 319.941C333.437 316.61 334.201 312.103 332.036 304.02C329.148 292.943 329.699 286.739 334.225 277.502C339.835 266.157 339.486 260.06 333.066 257.511C328.15 255.55 320.762 257.009 310.702 262.189C294.468 270.419 287.829 278.172 288.015 288.971C288.168 295.57 290.718 301.85 295.461 307.212C302.019 314.56 316.784 322.643 323.584 322.588C325.184 322.576 327.775 321.455 329.463 319.941Z" fill="black"/>
<path d="M1265.43 311.686C1270.7 308.743 1271.37 304.438 1268.76 291.258C1266.78 280.874 1267.16 278.571 1272.68 267.726C1275.14 263.007 1277.1 257.791 1277.09 256.191C1277.05 252.091 1273.62 248.218 1269.32 247.453C1258.3 245.44 1233.01 259.042 1227.49 269.786C1226.51 271.694 1225.84 275.3 1225.87 279C1225.96 290.999 1234.45 301.932 1249.71 309.611C1257.14 313.352 1261.44 313.917 1265.43 311.686Z" fill="black"/>
<path d="M260.595 311.69C270.766 308.009 275.201 299.774 270.252 293.613C266.009 288.246 257.892 286.211 248.608 288.185C241.021 289.845 234.37 296.099 234.413 301.498C234.485 310.498 248.73 316.085 260.595 311.69Z" fill="black"/>
<path d="M1198.83 300.216C1203.82 298.276 1209.18 292.933 1209.84 289.028C1210.61 285.022 1207.58 280.346 1202.86 278.183C1192.12 273.269 1178.15 276.68 1173.02 285.521C1170.45 290.042 1172.09 294.929 1177.52 298.486C1182.44 301.646 1192.85 302.464 1198.83 300.216Z" fill="black"/>
<path d="M754.952 291.752C766.211 286.562 763.713 274.281 750.165 268.289C744.645 265.833 735.343 265.607 730.662 267.944C726.079 270.081 723.72 275.3 725.256 279.788C726.486 283.578 731.324 288.34 736.344 290.8C740.963 293.163 750.967 293.684 754.952 291.752Z" fill="black"/>
<path d="M266.748 280.54C271.933 278.699 275.202 274.773 275.17 270.673C275.085 260.073 257.213 251.115 245.549 255.709C240.165 257.751 238.087 260.468 238.126 265.368C238.168 270.568 241.805 275.239 248.23 278.388C255.157 281.733 261.563 282.482 266.748 280.54Z" fill="black"/>
<path d="M784.713 274.014C787.204 272.894 789.88 269.872 790.164 267.87C790.918 262.164 789.998 259.671 785.262 255.109C778.106 248.066 767.988 245.946 761.321 250.099C748.086 258.305 769.662 280.334 784.713 274.014Z" fill="black"/>
<path d="M1206.68 268.752C1215.45 264.582 1216.19 257.476 1208.53 250.037C1201.98 243.489 1191.06 240.875 1183.69 244.134C1172.62 248.923 1174.83 261.605 1187.77 267.402C1195.1 270.644 1201.7 271.192 1206.68 268.752Z" fill="black"/>
<path d="M297.704 262.392C304.081 259.441 305.442 254.53 301.987 247.658C297.823 239.69 285.379 234.189 277.6 236.851C272.514 238.592 269.646 242.615 270.38 246.909C272.166 257.695 288.239 266.768 297.704 262.392Z" fill="black"/>
<path d="M1237.05 251.61C1242.13 248.969 1243.7 245.457 1242.16 240.469C1239.7 232.488 1231.95 226.65 1222.64 225.724C1210.33 224.622 1205.52 235.361 1214.19 244.992C1220.45 252.042 1230.67 254.961 1237.05 251.61Z" fill="black"/>
</g>
</g>
<defs>
<clipPath id="clip0_409_36">
<rect width="1280" height="640" fill="white"/>
</clipPath>
<clipPath id="clip1_409_36">
<rect width="1330" height="658" fill="white" transform="translate(1280.2 646.979) rotate(179.544)"/>
</clipPath>
</defs>
</svg>
