<svg width="856" height="988" viewBox="0 0 856 988" fill="none" xmlns="http://www.w3.org/2000/svg">
<path d="M422.284 478.705L384.117 448.098L390.017 463.033L433.716 508.575L471.883 539.182L465.983 524.247L422.284 478.705Z" stroke="url(#paint0_linear_3_250)" stroke-width="5" stroke-miterlimit="10"/>
<path d="M422.468 478.152L382.089 444.963L387.62 460.451L433.531 509.312L473.911 542.501L468.38 526.829L422.468 478.152Z" stroke="url(#paint1_linear_3_250)" stroke-width="5" stroke-miterlimit="10"/>
<path d="M422.653 477.599L379.876 441.644L385.039 457.685L433.347 509.866L476.123 545.82L470.961 529.779L422.653 477.599Z" stroke="url(#paint2_linear_3_250)" stroke-width="5" stroke-miterlimit="10"/>
<path d="M423.022 477.046L377.479 437.957L382.458 454.735L432.978 510.419L478.521 549.323L473.542 532.729L423.022 477.046Z" stroke="url(#paint3_linear_3_250)" stroke-width="5" stroke-miterlimit="10"/>
<path d="M423.575 476.492L375.267 434.269L379.692 451.601L432.425 510.972L480.733 553.195L476.308 535.863L423.575 476.492Z" stroke="url(#paint4_linear_3_250)" stroke-width="5" stroke-miterlimit="10"/>
<path d="M424.128 475.755L372.87 430.397L376.927 448.098L431.872 511.525L483.13 557.067L479.074 539.182L424.128 475.755Z" stroke="url(#paint5_linear_3_250)" stroke-width="5" stroke-miterlimit="10"/>
<path d="M424.681 475.202L370.657 426.156L373.976 444.594L431.319 512.078L485.343 561.308L482.024 542.87L424.681 475.202Z" stroke="url(#paint6_linear_3_250)" stroke-width="5" stroke-miterlimit="10"/>
<path d="M425.419 474.833L368.261 421.731L370.842 440.722L430.582 512.631L487.74 565.549L485.159 546.557L425.419 474.833Z" stroke="url(#paint7_linear_3_250)" stroke-width="5" stroke-miterlimit="10"/>
<path d="M426.156 474.28L365.863 417.306L367.707 436.666L429.844 513.184L490.137 570.158L488.293 550.614L426.156 474.28Z" stroke="url(#paint8_linear_3_250)" stroke-width="5" stroke-miterlimit="10"/>
<path d="M427.079 473.727L363.467 412.512L364.389 432.425L428.922 513.553L492.534 574.952L491.612 555.039L427.079 473.727Z" stroke="url(#paint9_linear_3_250)" stroke-width="5" stroke-miterlimit="10"/>
<path d="M428.184 473.358L361.254 407.534L361.069 427.816L427.816 514.106L494.746 579.931L494.93 559.649L428.184 473.358Z" stroke="url(#paint10_linear_3_250)" stroke-width="5" stroke-miterlimit="10"/>
<path d="M429.291 472.989L358.857 402.371L357.566 423.022L426.71 514.475L497.143 585.093L498.434 564.442L429.291 472.989Z" stroke="url(#paint11_linear_3_250)" stroke-width="5" stroke-miterlimit="10"/>
<path d="M430.766 472.62L356.645 396.839L353.879 417.859L425.235 514.844L499.356 590.625L502.122 569.421L430.766 472.62Z" stroke="url(#paint12_linear_3_250)" stroke-width="5" stroke-miterlimit="10"/>
<path d="M432.241 472.436L354.432 391.124L350.191 412.512L423.76 515.028L501.569 596.156L505.81 574.952L432.241 472.436Z" stroke="url(#paint13_linear_3_250)" stroke-width="5" stroke-miterlimit="10"/>
<path d="M433.901 472.252L352.404 385.408L346.319 406.796L422.1 515.213L503.781 602.056L509.682 580.668L433.901 472.252Z" stroke="url(#paint14_linear_3_250)" stroke-width="5" stroke-miterlimit="10"/>
<path d="M435.929 472.067L350.376 379.139L342.447 400.712L420.072 515.213L505.625 608.141L513.554 586.568L435.929 472.067Z" stroke="url(#paint15_linear_3_250)" stroke-width="5" stroke-miterlimit="10"/>
<path d="M437.957 472.067L348.532 372.87L338.575 394.442L418.044 515.213L507.469 614.594L517.426 593.022L437.957 472.067Z" stroke="url(#paint16_linear_3_250)" stroke-width="5" stroke-miterlimit="10"/>
<path d="M440.354 472.252L346.688 366.416L334.519 387.805L415.647 515.213L509.312 621.048L521.482 599.659L440.354 472.252Z" stroke="url(#paint17_linear_3_250)" stroke-width="5" stroke-miterlimit="10"/>
<path d="M442.935 472.436L345.212 359.594L330.462 380.798L413.065 514.844L510.787 627.87L525.722 606.666L442.935 472.436Z" stroke="url(#paint18_linear_3_250)" stroke-width="5" stroke-miterlimit="10"/>
<path d="M445.701 472.989L343.922 352.588L326.222 373.423L410.3 514.475L512.079 634.692L529.779 614.041L445.701 472.989Z" stroke="url(#paint19_linear_3_250)" stroke-width="5" stroke-miterlimit="10"/>
<path d="M449.02 473.542L343 345.397L322.165 365.679L406.981 513.922L513 641.883L533.835 621.785L449.02 473.542Z" stroke="url(#paint20_linear_3_250)" stroke-width="5" stroke-miterlimit="10"/>
<path d="M452.338 474.28L342.262 338.022L317.924 357.566L403.661 513.184L513.737 649.258L538.076 629.714L452.338 474.28Z" stroke="url(#paint21_linear_3_250)" stroke-width="5" stroke-miterlimit="10"/>
<path d="M456.211 475.202L341.894 330.646L313.684 349.085L399.79 512.262L514.107 656.818L542.317 638.195L456.211 475.202Z" stroke="url(#paint22_linear_3_250)" stroke-width="5" stroke-miterlimit="10"/>
<path d="M460.451 476.308L342.078 322.902L309.627 340.234L395.549 511.156L513.922 664.562L546.373 647.046L460.451 476.308Z" stroke="url(#paint23_linear_3_250)" stroke-width="5" stroke-miterlimit="10"/>
<path d="M464.877 477.599L342.632 314.974L305.571 331.015L391.124 509.681L513.37 672.306L550.43 656.265L464.877 477.599Z" stroke="url(#paint24_linear_3_250)" stroke-width="5" stroke-miterlimit="10"/>
<path d="M469.854 479.258L343.553 307.046L301.698 321.427L386.145 508.022L512.447 680.419L554.301 666.037L469.854 479.258Z" stroke="url(#paint25_linear_3_250)" stroke-width="5" stroke-miterlimit="10"/>
<path d="M475.386 481.286L345.212 298.933L297.826 311.471L380.614 506.178L510.787 688.347L558.173 675.994L475.386 481.286Z" stroke="url(#paint26_linear_3_250)" stroke-width="5" stroke-miterlimit="10"/>
<path d="M481.286 483.683L347.425 290.82L294.139 300.961L374.714 503.781L508.575 696.46L561.861 686.503L481.286 483.683Z" stroke="url(#paint27_linear_3_250)" stroke-width="5" stroke-miterlimit="10"/>
<path d="M487.74 486.265L350.375 282.707L290.636 290.267L368.26 501.2L505.625 704.757L565.365 697.197L487.74 486.265Z" stroke="url(#paint28_linear_3_250)" stroke-width="5" stroke-miterlimit="10"/>
<path d="M494.746 489.215L354.063 274.594L287.501 279.02L361.254 498.065L501.937 712.87L568.499 708.445L494.746 489.215Z" stroke="url(#paint29_linear_3_250)" stroke-width="5" stroke-miterlimit="10"/>
<path d="M502.306 492.718L358.857 266.482L284.551 267.404L353.694 494.562L497.143 720.983L571.449 720.061L502.306 492.718Z" stroke="url(#paint30_linear_3_250)" stroke-width="5" stroke-miterlimit="10"/>
<path d="M510.419 496.774L364.388 258.369L281.97 255.419L345.581 490.69L491.612 728.911L574.03 732.046L510.419 496.774Z" stroke="url(#paint31_linear_3_250)" stroke-width="5" stroke-miterlimit="10"/>
<path d="M519.269 501.2L371.21 250.625L279.941 243.065L336.731 486.265L484.79 736.839L576.059 744.215L519.269 501.2Z" stroke="url(#paint32_linear_3_250)" stroke-width="5" stroke-miterlimit="10"/>
<path d="M528.857 506.178L378.955 242.881L278.282 230.527L327.143 481.286L477.046 744.399L577.718 756.937L528.857 506.178Z" stroke="url(#paint33_linear_3_250)" stroke-width="5" stroke-miterlimit="10"/>
<path d="M539.182 511.894L388.174 235.505L277.176 217.436L316.818 475.57L467.827 751.774L578.824 770.028L539.182 511.894Z" stroke="url(#paint34_linear_3_250)" stroke-width="5" stroke-miterlimit="10"/>
<path d="M550.245 518.163L398.867 228.499L276.622 204.161L305.754 469.301L457.132 758.965L579.377 783.304L550.245 518.163Z" stroke="url(#paint35_linear_3_250)" stroke-width="5" stroke-miterlimit="10"/>
<path d="M562.23 525.169L411.037 221.861L276.807 190.516L293.77 462.295L444.963 765.419L579.193 796.948L562.23 525.169Z" stroke="url(#paint36_linear_3_250)" stroke-width="5" stroke-miterlimit="10"/>
<path d="M575.136 532.913L425.05 215.777L277.913 176.688L280.863 454.551L430.95 771.503L578.087 810.777L575.136 532.913Z" stroke="url(#paint37_linear_3_250)" stroke-width="5" stroke-miterlimit="10"/>
<path d="M588.966 541.395L440.907 210.429L279.942 162.675L267.035 445.885L415.094 777.035L576.059 824.789L588.966 541.395Z" stroke="url(#paint38_linear_3_250)" stroke-width="5" stroke-miterlimit="10"/>
<path d="M603.9 550.983L458.792 205.636L282.891 148.477L252.1 436.482L397.208 781.644L573.108 838.987L603.9 550.983Z" stroke="url(#paint39_linear_3_250)" stroke-width="5" stroke-miterlimit="10"/>
<path d="M619.757 561.492L478.89 201.948L287.133 134.095L236.243 425.972L377.111 785.516L568.868 853.184L619.757 561.492Z" stroke="url(#paint40_linear_3_250)" stroke-width="5" stroke-miterlimit="10"/>
<path d="M636.905 572.924L501.569 198.998L292.664 119.714L219.096 414.356L354.432 788.282L563.336 867.566L636.905 572.924Z" stroke="url(#paint41_linear_3_250)" stroke-width="5" stroke-miterlimit="10"/>
<path d="M655.158 585.646L526.644 197.338L299.486 105.516L200.842 401.818L329.356 789.941L556.514 881.948L655.158 585.646Z" stroke="url(#paint42_linear_3_250)" stroke-width="5" stroke-miterlimit="10"/>
<path d="M674.702 599.475L554.67 196.97L307.967 91.1344L181.297 387.805L301.329 790.31L548.032 896.145L674.702 599.475Z" stroke="url(#paint43_linear_3_250)" stroke-width="5" stroke-miterlimit="10"/>
<path d="M695.538 614.779L585.831 198.076L318.293 77.1215L160.462 372.686L270.169 789.204L537.707 910.343L695.538 614.779Z" stroke="url(#paint44_linear_3_250)" stroke-width="5" stroke-miterlimit="10"/>
<path d="M717.849 631.373L620.311 201.026L330.463 63.2928L138.152 356.091L235.69 786.438L525.538 923.987L717.849 631.373Z" stroke="url(#paint45_linear_3_250)" stroke-width="5" stroke-miterlimit="10"/>
<path d="M741.633 649.443L658.477 205.636L344.843 50.0173L114.366 338.022L197.522 781.829L511.156 937.447L741.633 649.443Z" stroke="url(#paint46_linear_3_250)" stroke-width="5" stroke-miterlimit="10"/>
<path d="M766.894 669.171L700.516 212.458L361.438 37.1106L89.1064 318.293L155.484 774.822L494.562 950.354L766.894 669.171Z" stroke="url(#paint47_linear_3_250)" stroke-width="5" stroke-miterlimit="10"/>
<path d="M793.998 690.56L746.611 221.677L380.798 24.9414L62.002 296.905L109.388 765.787L475.201 962.523L793.998 690.56Z" stroke="url(#paint48_linear_3_250)" stroke-width="5" stroke-miterlimit="10"/>
<path d="M822.577 713.792L797.317 233.477L402.74 13.5098L33.4229 273.672L58.6832 753.803L453.26 973.954L822.577 713.792Z" stroke="url(#paint49_linear_3_250)" stroke-width="5" stroke-miterlimit="10"/>
<path d="M853 739.052V248.412L428 3L3 248.412V739.052L428 984.464L853 739.052Z" stroke="url(#paint50_linear_3_250)" stroke-width="5" stroke-miterlimit="10"/>
<defs>
<linearGradient id="paint0_linear_3_250" x1="428" y1="448.098" x2="428" y2="539.182" gradientUnits="userSpaceOnUse">
<stop stop-color="#6FD117"/>
<stop offset="1" stop-color="#1C1818"/>
</linearGradient>
<linearGradient id="paint1_linear_3_250" x1="428" y1="444.963" x2="428" y2="542.501" gradientUnits="userSpaceOnUse">
<stop stop-color="#6FD117"/>
<stop offset="1" stop-color="#1C1818"/>
</linearGradient>
<linearGradient id="paint2_linear_3_250" x1="428" y1="441.644" x2="428" y2="545.82" gradientUnits="userSpaceOnUse">
<stop stop-color="#6FD117"/>
<stop offset="1" stop-color="#1C1818"/>
</linearGradient>
<linearGradient id="paint3_linear_3_250" x1="428" y1="437.957" x2="428" y2="549.323" gradientUnits="userSpaceOnUse">
<stop stop-color="#6FD117"/>
<stop offset="1" stop-color="#1C1818"/>
</linearGradient>
<linearGradient id="paint4_linear_3_250" x1="428" y1="434.269" x2="428" y2="553.195" gradientUnits="userSpaceOnUse">
<stop stop-color="#6FD117"/>
<stop offset="1" stop-color="#1C1818"/>
</linearGradient>
<linearGradient id="paint5_linear_3_250" x1="428" y1="430.397" x2="428" y2="557.067" gradientUnits="userSpaceOnUse">
<stop stop-color="#6FD117"/>
<stop offset="1" stop-color="#1C1818"/>
</linearGradient>
<linearGradient id="paint6_linear_3_250" x1="428" y1="426.156" x2="428" y2="561.308" gradientUnits="userSpaceOnUse">
<stop stop-color="#6FD117"/>
<stop offset="1" stop-color="#1C1818"/>
</linearGradient>
<linearGradient id="paint7_linear_3_250" x1="428" y1="421.731" x2="428" y2="565.549" gradientUnits="userSpaceOnUse">
<stop stop-color="#6FD117"/>
<stop offset="1" stop-color="#1C1818"/>
</linearGradient>
<linearGradient id="paint8_linear_3_250" x1="428" y1="417.306" x2="428" y2="570.158" gradientUnits="userSpaceOnUse">
<stop stop-color="#6FD117"/>
<stop offset="1" stop-color="#1C1818"/>
</linearGradient>
<linearGradient id="paint9_linear_3_250" x1="428" y1="412.512" x2="428" y2="574.952" gradientUnits="userSpaceOnUse">
<stop stop-color="#6FD117"/>
<stop offset="1" stop-color="#1C1818"/>
</linearGradient>
<linearGradient id="paint10_linear_3_250" x1="428" y1="407.534" x2="428" y2="579.931" gradientUnits="userSpaceOnUse">
<stop stop-color="#6FD117"/>
<stop offset="1" stop-color="#1C1818"/>
</linearGradient>
<linearGradient id="paint11_linear_3_250" x1="428" y1="402.371" x2="428" y2="585.093" gradientUnits="userSpaceOnUse">
<stop stop-color="#6FD117"/>
<stop offset="1" stop-color="#1C1818"/>
</linearGradient>
<linearGradient id="paint12_linear_3_250" x1="428" y1="396.839" x2="428" y2="590.625" gradientUnits="userSpaceOnUse">
<stop stop-color="#6FD117"/>
<stop offset="1" stop-color="#1C1818"/>
</linearGradient>
<linearGradient id="paint13_linear_3_250" x1="428.001" y1="391.124" x2="428.001" y2="596.156" gradientUnits="userSpaceOnUse">
<stop stop-color="#6FD117"/>
<stop offset="1" stop-color="#1C1818"/>
</linearGradient>
<linearGradient id="paint14_linear_3_250" x1="428" y1="385.408" x2="428" y2="602.056" gradientUnits="userSpaceOnUse">
<stop stop-color="#6FD117"/>
<stop offset="1" stop-color="#1C1818"/>
</linearGradient>
<linearGradient id="paint15_linear_3_250" x1="428" y1="379.139" x2="428" y2="608.141" gradientUnits="userSpaceOnUse">
<stop stop-color="#6FD117"/>
<stop offset="1" stop-color="#1C1818"/>
</linearGradient>
<linearGradient id="paint16_linear_3_250" x1="428" y1="372.87" x2="428" y2="614.594" gradientUnits="userSpaceOnUse">
<stop stop-color="#6FD117"/>
<stop offset="1" stop-color="#1C1818"/>
</linearGradient>
<linearGradient id="paint17_linear_3_250" x1="428" y1="366.416" x2="428" y2="621.048" gradientUnits="userSpaceOnUse">
<stop stop-color="#6FD117"/>
<stop offset="1" stop-color="#1C1818"/>
</linearGradient>
<linearGradient id="paint18_linear_3_250" x1="428.092" y1="359.594" x2="428.092" y2="627.87" gradientUnits="userSpaceOnUse">
<stop stop-color="#6FD117"/>
<stop offset="1" stop-color="#1C1818"/>
</linearGradient>
<linearGradient id="paint19_linear_3_250" x1="428" y1="352.588" x2="428" y2="634.692" gradientUnits="userSpaceOnUse">
<stop stop-color="#6FD117"/>
<stop offset="1" stop-color="#1C1818"/>
</linearGradient>
<linearGradient id="paint20_linear_3_250" x1="428" y1="345.397" x2="428" y2="641.883" gradientUnits="userSpaceOnUse">
<stop stop-color="#6FD117"/>
<stop offset="1" stop-color="#1C1818"/>
</linearGradient>
<linearGradient id="paint21_linear_3_250" x1="428" y1="338.022" x2="428" y2="649.258" gradientUnits="userSpaceOnUse">
<stop stop-color="#6FD117"/>
<stop offset="1" stop-color="#1C1818"/>
</linearGradient>
<linearGradient id="paint22_linear_3_250" x1="428" y1="330.646" x2="428" y2="656.818" gradientUnits="userSpaceOnUse">
<stop stop-color="#6FD117"/>
<stop offset="1" stop-color="#1C1818"/>
</linearGradient>
<linearGradient id="paint23_linear_3_250" x1="428" y1="322.902" x2="428" y2="664.562" gradientUnits="userSpaceOnUse">
<stop stop-color="#6FD117"/>
<stop offset="1" stop-color="#1C1818"/>
</linearGradient>
<linearGradient id="paint24_linear_3_250" x1="428.001" y1="314.974" x2="428.001" y2="672.306" gradientUnits="userSpaceOnUse">
<stop stop-color="#6FD117"/>
<stop offset="1" stop-color="#1C1818"/>
</linearGradient>
<linearGradient id="paint25_linear_3_250" x1="428" y1="307.046" x2="428" y2="680.419" gradientUnits="userSpaceOnUse">
<stop stop-color="#6FD117"/>
<stop offset="1" stop-color="#1C1818"/>
</linearGradient>
<linearGradient id="paint26_linear_3_250" x1="428" y1="298.933" x2="428" y2="688.347" gradientUnits="userSpaceOnUse">
<stop stop-color="#6FD117"/>
<stop offset="1" stop-color="#1C1818"/>
</linearGradient>
<linearGradient id="paint27_linear_3_250" x1="428" y1="290.82" x2="428" y2="696.46" gradientUnits="userSpaceOnUse">
<stop stop-color="#6FD117"/>
<stop offset="1" stop-color="#1C1818"/>
</linearGradient>
<linearGradient id="paint28_linear_3_250" x1="428" y1="282.707" x2="428" y2="704.757" gradientUnits="userSpaceOnUse">
<stop stop-color="#6FD117"/>
<stop offset="1" stop-color="#1C1818"/>
</linearGradient>
<linearGradient id="paint29_linear_3_250" x1="428" y1="274.594" x2="428" y2="712.87" gradientUnits="userSpaceOnUse">
<stop stop-color="#6FD117"/>
<stop offset="1" stop-color="#1C1818"/>
</linearGradient>
<linearGradient id="paint30_linear_3_250" x1="428" y1="266.482" x2="428" y2="720.983" gradientUnits="userSpaceOnUse">
<stop stop-color="#6FD117"/>
<stop offset="1" stop-color="#1C1818"/>
</linearGradient>
<linearGradient id="paint31_linear_3_250" x1="428" y1="255.419" x2="428" y2="732.046" gradientUnits="userSpaceOnUse">
<stop stop-color="#6FD117"/>
<stop offset="1" stop-color="#1C1818"/>
</linearGradient>
<linearGradient id="paint32_linear_3_250" x1="428" y1="243.065" x2="428" y2="744.215" gradientUnits="userSpaceOnUse">
<stop stop-color="#6FD117"/>
<stop offset="1" stop-color="#1C1818"/>
</linearGradient>
<linearGradient id="paint33_linear_3_250" x1="428" y1="230.527" x2="428" y2="756.937" gradientUnits="userSpaceOnUse">
<stop stop-color="#6FD117"/>
<stop offset="1" stop-color="#1C1818"/>
</linearGradient>
<linearGradient id="paint34_linear_3_250" x1="428" y1="217.436" x2="428" y2="770.028" gradientUnits="userSpaceOnUse">
<stop stop-color="#6FD117"/>
<stop offset="1" stop-color="#1C1818"/>
</linearGradient>
<linearGradient id="paint35_linear_3_250" x1="428" y1="204.161" x2="428" y2="783.304" gradientUnits="userSpaceOnUse">
<stop stop-color="#6FD117"/>
<stop offset="1" stop-color="#1C1818"/>
</linearGradient>
<linearGradient id="paint36_linear_3_250" x1="428" y1="190.516" x2="428" y2="796.948" gradientUnits="userSpaceOnUse">
<stop stop-color="#6FD117"/>
<stop offset="1" stop-color="#1C1818"/>
</linearGradient>
<linearGradient id="paint37_linear_3_250" x1="428" y1="176.688" x2="428" y2="810.777" gradientUnits="userSpaceOnUse">
<stop stop-color="#6FD117"/>
<stop offset="1" stop-color="#1C1818"/>
</linearGradient>
<linearGradient id="paint38_linear_3_250" x1="428" y1="162.675" x2="428" y2="824.789" gradientUnits="userSpaceOnUse">
<stop stop-color="#6FD117"/>
<stop offset="1" stop-color="#1C1818"/>
</linearGradient>
<linearGradient id="paint39_linear_3_250" x1="428" y1="148.477" x2="428" y2="838.987" gradientUnits="userSpaceOnUse">
<stop stop-color="#6FD117"/>
<stop offset="1" stop-color="#1C1818"/>
</linearGradient>
<linearGradient id="paint40_linear_3_250" x1="428" y1="134.095" x2="428" y2="853.184" gradientUnits="userSpaceOnUse">
<stop stop-color="#6FD117"/>
<stop offset="1" stop-color="#1C1818"/>
</linearGradient>
<linearGradient id="paint41_linear_3_250" x1="428" y1="119.714" x2="428" y2="867.566" gradientUnits="userSpaceOnUse">
<stop stop-color="#6FD117"/>
<stop offset="1" stop-color="#1C1818"/>
</linearGradient>
<linearGradient id="paint42_linear_3_250" x1="428" y1="105.516" x2="428" y2="881.948" gradientUnits="userSpaceOnUse">
<stop stop-color="#6FD117"/>
<stop offset="1" stop-color="#1C1818"/>
</linearGradient>
<linearGradient id="paint43_linear_3_250" x1="428" y1="91.1344" x2="428" y2="896.145" gradientUnits="userSpaceOnUse">
<stop stop-color="#6FD117"/>
<stop offset="1" stop-color="#1C1818"/>
</linearGradient>
<linearGradient id="paint44_linear_3_250" x1="428" y1="77.1215" x2="428" y2="910.343" gradientUnits="userSpaceOnUse">
<stop stop-color="#6FD117"/>
<stop offset="1" stop-color="#1C1818"/>
</linearGradient>
<linearGradient id="paint45_linear_3_250" x1="428.001" y1="63.2928" x2="428.001" y2="923.987" gradientUnits="userSpaceOnUse">
<stop stop-color="#6FD117"/>
<stop offset="1" stop-color="#1C1818"/>
</linearGradient>
<linearGradient id="paint46_linear_3_250" x1="428" y1="50.0173" x2="428" y2="937.447" gradientUnits="userSpaceOnUse">
<stop stop-color="#6FD117"/>
<stop offset="1" stop-color="#1C1818"/>
</linearGradient>
<linearGradient id="paint47_linear_3_250" x1="428" y1="37.1106" x2="428" y2="950.354" gradientUnits="userSpaceOnUse">
<stop stop-color="#6FD117"/>
<stop offset="1" stop-color="#1C1818"/>
</linearGradient>
<linearGradient id="paint48_linear_3_250" x1="428" y1="24.9414" x2="428" y2="962.523" gradientUnits="userSpaceOnUse">
<stop stop-color="#6FD117"/>
<stop offset="1" stop-color="#1C1818"/>
</linearGradient>
<linearGradient id="paint49_linear_3_250" x1="428" y1="13.5098" x2="428" y2="973.954" gradientUnits="userSpaceOnUse">
<stop stop-color="#6FD117"/>
<stop offset="1" stop-color="#1C1818"/>
</linearGradient>
<linearGradient id="paint50_linear_3_250" x1="428" y1="3" x2="428" y2="984.464" gradientUnits="userSpaceOnUse">
<stop stop-color="#6FD117"/>
<stop offset="1" stop-color="#1C1818"/>
</linearGradient>
</defs>
</svg>
