<svg width="927" height="803" viewBox="0 0 927 803" fill="none" xmlns="http://www.w3.org/2000/svg">
<path d="M453.229 404.478L462.541 396.763L471.853 388.781L473.981 400.754L476.11 412.726L464.67 408.735L453.229 404.478Z" stroke="url(#paint0_linear_3_413)" stroke-width="6" stroke-miterlimit="10"/>
<path d="M452.432 404.212L462.808 396.231L472.917 388.249L474.78 401.02L476.642 414.056L464.404 409.267L452.432 404.212Z" stroke="url(#paint1_linear_3_413)" stroke-width="6" stroke-miterlimit="10"/>
<path d="M451.367 403.946L462.807 395.699L474.247 387.451L475.578 401.286L477.174 415.386L464.404 409.799L451.367 403.946Z" stroke="url(#paint2_linear_3_413)" stroke-width="6" stroke-miterlimit="10"/>
<path d="M450.569 403.68L463.074 395.167L475.578 386.653L476.642 401.818L477.706 416.717L464.138 410.331L450.569 403.68Z" stroke="url(#paint3_linear_3_413)" stroke-width="6" stroke-miterlimit="10"/>
<path d="M449.505 403.148L463.339 394.634L477.174 385.855L477.706 402.084L478.238 418.313L463.872 410.864L449.505 403.148Z" stroke="url(#paint4_linear_3_413)" stroke-width="6" stroke-miterlimit="10"/>
<path d="M448.441 402.616L463.606 393.836L478.771 385.323V402.616V420.175L463.606 411.396L448.441 402.616Z" stroke="url(#paint5_linear_3_413)" stroke-width="6" stroke-miterlimit="10"/>
<path d="M447.377 402.084L463.872 393.304L480.633 384.525L479.835 403.148L479.303 422.038L463.34 412.194L447.377 402.084Z" stroke="url(#paint6_linear_3_413)" stroke-width="6" stroke-miterlimit="10"/>
<path d="M446.046 401.552L464.403 392.506L482.495 383.726L481.164 403.946L479.568 424.166L462.807 412.726L446.046 401.552Z" stroke="url(#paint7_linear_3_413)" stroke-width="6" stroke-miterlimit="10"/>
<path d="M444.982 400.754L464.67 391.974L484.624 382.928L482.229 404.744L480.101 426.294L462.542 413.524L444.982 400.754Z" stroke="url(#paint8_linear_3_413)" stroke-width="6" stroke-miterlimit="10"/>
<path d="M443.652 399.955L465.202 391.176L487.018 382.396L483.56 405.542L480.367 428.689L462.01 414.322L443.652 399.955Z" stroke="url(#paint9_linear_3_413)" stroke-width="6" stroke-miterlimit="10"/>
<path d="M442.321 398.891L465.734 390.378L489.412 381.864L485.155 406.341L480.632 431.083L461.477 415.12L442.321 398.891Z" stroke="url(#paint10_linear_3_413)" stroke-width="6" stroke-miterlimit="10"/>
<path d="M440.725 397.827L466.531 389.58L492.072 381.066L486.485 407.671L480.898 434.01L460.678 415.918L440.725 397.827Z" stroke="url(#paint11_linear_3_413)" stroke-width="6" stroke-miterlimit="10"/>
<path d="M439.129 396.497L467.064 388.515L494.999 380.534L488.082 408.735L480.899 436.936L460.147 416.717L439.129 396.497Z" stroke="url(#paint12_linear_3_413)" stroke-width="6" stroke-miterlimit="10"/>
<path d="M437.533 395.167L467.863 387.717L498.193 380.268L489.679 410.065L480.899 440.129L459.349 417.781L437.533 395.167Z" stroke="url(#paint13_linear_3_413)" stroke-width="6" stroke-miterlimit="10"/>
<path d="M435.937 393.836L468.927 386.653L501.651 379.736L491.275 411.662L480.899 443.588L458.551 418.579L435.937 393.836Z" stroke="url(#paint14_linear_3_413)" stroke-width="6" stroke-miterlimit="10"/>
<path d="M434.34 391.974L469.724 385.855L505.375 379.47L492.871 413.524L480.633 447.312L457.486 419.643L434.34 391.974Z" stroke="url(#paint15_linear_3_413)" stroke-width="6" stroke-miterlimit="10"/>
<path d="M432.478 390.112L470.789 384.791L509.366 379.204L494.733 415.386L480.367 451.303L456.422 420.707L432.478 390.112Z" stroke="url(#paint16_linear_3_413)" stroke-width="6" stroke-miterlimit="10"/>
<path d="M430.615 387.983L472.119 383.726L513.623 379.204L496.596 417.515L479.568 455.56L455.092 421.772L430.615 387.983Z" stroke="url(#paint17_linear_3_413)" stroke-width="6" stroke-miterlimit="10"/>
<path d="M428.753 385.589L473.449 382.662L518.146 379.47L498.458 419.643L478.77 460.083L453.762 422.836L428.753 385.589Z" stroke="url(#paint18_linear_3_413)" stroke-width="6" stroke-miterlimit="10"/>
<path d="M426.625 383.194L475.046 381.332L523.201 379.736L500.587 422.304L477.973 464.872L452.432 423.9L426.625 383.194Z" stroke="url(#paint19_linear_3_413)" stroke-width="6" stroke-miterlimit="10"/>
<path d="M424.762 380.268H476.641H528.521L502.448 425.23L476.641 470.193L450.569 425.23L424.762 380.268Z" stroke="url(#paint20_linear_3_413)" stroke-width="6" stroke-miterlimit="10"/>
<path d="M422.634 377.075L478.504 379.204L534.109 381.066L504.577 428.423L475.046 475.514L448.973 426.294L422.634 377.075Z" stroke="url(#paint21_linear_3_413)" stroke-width="6" stroke-miterlimit="10"/>
<path d="M420.506 373.617L480.367 377.873L540.228 382.13L506.706 431.881L473.184 481.633L446.845 427.625L420.506 373.617Z" stroke="url(#paint22_linear_3_413)" stroke-width="6" stroke-miterlimit="10"/>
<path d="M418.377 369.892L482.495 376.543L546.879 383.461L508.834 435.606L471.055 487.752L444.716 428.955L418.377 369.892Z" stroke="url(#paint23_linear_3_413)" stroke-width="6" stroke-miterlimit="10"/>
<path d="M416.248 365.635L484.889 375.479L553.796 385.057L510.962 439.597L468.394 494.403L442.321 430.019L416.248 365.635Z" stroke="url(#paint24_linear_3_413)" stroke-width="6" stroke-miterlimit="10"/>
<path d="M414.12 361.112L487.55 374.149L560.98 387.185L513.091 444.386L465.202 501.32L439.661 431.349L414.12 361.112Z" stroke="url(#paint25_linear_3_413)" stroke-width="6" stroke-miterlimit="10"/>
<path d="M411.992 356.323L490.477 373.084L568.962 389.579L515.219 449.175L461.743 508.77L436.735 432.68L411.992 356.323Z" stroke="url(#paint26_linear_3_413)" stroke-width="6" stroke-miterlimit="10"/>
<path d="M409.863 351.002L493.669 371.754L577.209 392.506L517.347 454.762L457.486 516.751L433.808 433.744L409.863 351.002Z" stroke="url(#paint27_linear_3_413)" stroke-width="6" stroke-miterlimit="10"/>
<path d="M408.001 345.149L497.128 370.69L586.254 396.231L519.476 460.615L452.697 524.999L430.349 435.074L408.001 345.149Z" stroke="url(#paint28_linear_3_413)" stroke-width="6" stroke-miterlimit="10"/>
<path d="M405.873 338.498L500.587 369.36L595.567 400.221L521.339 467L447.377 533.778L426.625 436.138L405.873 338.498Z" stroke="url(#paint29_linear_3_413)" stroke-width="6" stroke-miterlimit="10"/>
<path d="M404.011 331.581L504.844 368.296L605.41 405.01L523.467 473.917L441.258 542.824L422.634 437.202L404.011 331.581Z" stroke="url(#paint30_linear_3_413)" stroke-width="6" stroke-miterlimit="10"/>
<path d="M402.148 324.131L509.1 367.231L616.052 410.598L525.063 481.367L434.34 552.402L418.377 438.267L402.148 324.131Z" stroke="url(#paint31_linear_3_413)" stroke-width="6" stroke-miterlimit="10"/>
<path d="M400.552 315.884L513.889 366.433L626.96 416.717L526.659 489.614L426.625 562.512L413.588 439.331L400.552 315.884Z" stroke="url(#paint32_linear_3_413)" stroke-width="6" stroke-miterlimit="10"/>
<path d="M399.222 307.104L518.944 365.635L638.666 423.9L528.256 498.66L417.845 573.154L408.533 440.129L399.222 307.104Z" stroke="url(#paint33_linear_3_413)" stroke-width="6" stroke-miterlimit="10"/>
<path d="M397.892 297.526L524.531 364.837L650.905 432.148L529.32 508.238L408.002 584.062L402.947 440.927L397.892 297.526Z" stroke="url(#paint34_linear_3_413)" stroke-width="6" stroke-miterlimit="10"/>
<path d="M397.093 287.417L530.384 364.305L663.941 441.459L530.384 518.348L397.093 595.502V441.459V287.417Z" stroke="url(#paint35_linear_3_413)" stroke-width="6" stroke-miterlimit="10"/>
<path d="M396.295 276.242L536.769 364.039L677.243 451.835L531.182 529.522L384.854 607.474L390.442 441.725L396.295 276.242Z" stroke="url(#paint36_linear_3_413)" stroke-width="6" stroke-miterlimit="10"/>
<path d="M396.029 264.27L543.686 363.773L691.344 463.541L531.448 541.494L371.286 619.713L383.524 441.991L396.029 264.27Z" stroke="url(#paint37_linear_3_413)" stroke-width="6" stroke-miterlimit="10"/>
<path d="M396.295 251.5L551.136 364.039L706.243 476.578L531.182 554.53L356.121 632.483L376.075 441.991L396.295 251.5Z" stroke="url(#paint38_linear_3_413)" stroke-width="6" stroke-miterlimit="10"/>
<path d="M396.827 237.665L559.117 364.305L721.407 491.211L530.384 568.365L339.626 645.519L368.093 441.459L396.827 237.665Z" stroke="url(#paint39_linear_3_413)" stroke-width="6" stroke-miterlimit="10"/>
<path d="M398.157 222.766L567.631 365.103L737.37 507.439L529.32 583.264L321.269 659.088L359.58 440.927L398.157 222.766Z" stroke="url(#paint40_linear_3_413)" stroke-width="6" stroke-miterlimit="10"/>
<path d="M400.02 206.803L576.943 366.167L753.866 525.531L527.458 599.227L300.783 672.656L350.534 439.863L400.02 206.803Z" stroke="url(#paint41_linear_3_413)" stroke-width="6" stroke-miterlimit="10"/>
<path d="M402.414 189.776L586.787 367.764L770.893 545.751L524.797 616.254L278.701 686.757L340.691 438.267L402.414 189.776Z" stroke="url(#paint42_linear_3_413)" stroke-width="6" stroke-miterlimit="10"/>
<path d="M405.873 171.685L597.163 369.892L788.453 567.833L521.339 634.345L254.225 701.124L330.049 436.404L405.873 171.685Z" stroke="url(#paint43_linear_3_413)" stroke-width="6" stroke-miterlimit="10"/>
<path d="M410.396 152.263L608.603 372.286L806.544 592.309L517.082 654.033L227.354 715.49L318.875 434.01L410.396 152.263Z" stroke="url(#paint44_linear_3_413)" stroke-width="6" stroke-miterlimit="10"/>
<path d="M415.717 131.511L620.309 375.479L825.167 619.446L511.495 674.785L198.088 729.857L306.902 430.817L415.717 131.511Z" stroke="url(#paint45_linear_3_413)" stroke-width="6" stroke-miterlimit="10"/>
<path d="M422.368 109.695L633.08 379.47L844.057 649.244L504.844 696.867L165.896 744.49L294.132 427.093L422.368 109.695Z" stroke="url(#paint46_linear_3_413)" stroke-width="6" stroke-miterlimit="10"/>
<path d="M430.349 86.2828L646.648 383.992L862.946 681.702L496.862 720.279L130.777 758.857L280.563 422.57L430.349 86.2828Z" stroke="url(#paint47_linear_3_413)" stroke-width="6" stroke-miterlimit="10"/>
<path d="M439.661 61.2742L661.015 389.58L882.368 717.619L487.55 745.288L92.7324 772.957L266.197 416.983L439.661 61.2742Z" stroke="url(#paint48_linear_3_413)" stroke-width="6" stroke-miterlimit="10"/>
<path d="M450.835 34.9352L676.179 395.965L901.789 756.728L476.375 771.627L50.9619 786.526L251.031 410.597L450.835 34.9352Z" stroke="url(#paint49_linear_3_413)" stroke-width="6" stroke-miterlimit="10"/>
<path d="M463.606 7L692.408 403.414L921.211 799.828H463.606H6L234.803 403.414L463.606 7Z" stroke="url(#paint50_linear_3_413)" stroke-width="6" stroke-miterlimit="10"/>
<defs>
<linearGradient id="paint0_linear_3_413" x1="464.67" y1="388.781" x2="464.67" y2="412.726" gradientUnits="userSpaceOnUse">
<stop stop-color="#F8BCBC"/>
<stop offset="1" stop-color="#231C21"/>
</linearGradient>
<linearGradient id="paint1_linear_3_413" x1="464.537" y1="388.249" x2="464.537" y2="414.056" gradientUnits="userSpaceOnUse">
<stop stop-color="#F8BCBC"/>
<stop offset="1" stop-color="#231C21"/>
</linearGradient>
<linearGradient id="paint2_linear_3_413" x1="464.271" y1="387.451" x2="464.271" y2="415.386" gradientUnits="userSpaceOnUse">
<stop stop-color="#F8BCBC"/>
<stop offset="1" stop-color="#231C21"/>
</linearGradient>
<linearGradient id="paint3_linear_3_413" x1="464.138" y1="386.653" x2="464.138" y2="416.717" gradientUnits="userSpaceOnUse">
<stop stop-color="#F8BCBC"/>
<stop offset="1" stop-color="#231C21"/>
</linearGradient>
<linearGradient id="paint4_linear_3_413" x1="463.872" y1="385.855" x2="463.872" y2="418.313" gradientUnits="userSpaceOnUse">
<stop stop-color="#F8BCBC"/>
<stop offset="1" stop-color="#231C21"/>
</linearGradient>
<linearGradient id="paint5_linear_3_413" x1="463.606" y1="385.323" x2="463.606" y2="420.175" gradientUnits="userSpaceOnUse">
<stop stop-color="#F8BCBC"/>
<stop offset="1" stop-color="#231C21"/>
</linearGradient>
<linearGradient id="paint6_linear_3_413" x1="464.005" y1="384.525" x2="464.005" y2="422.038" gradientUnits="userSpaceOnUse">
<stop stop-color="#F8BCBC"/>
<stop offset="1" stop-color="#231C21"/>
</linearGradient>
<linearGradient id="paint7_linear_3_413" x1="464.27" y1="383.726" x2="464.27" y2="424.166" gradientUnits="userSpaceOnUse">
<stop stop-color="#F8BCBC"/>
<stop offset="1" stop-color="#231C21"/>
</linearGradient>
<linearGradient id="paint8_linear_3_413" x1="464.803" y1="382.928" x2="464.803" y2="426.294" gradientUnits="userSpaceOnUse">
<stop stop-color="#F8BCBC"/>
<stop offset="1" stop-color="#231C21"/>
</linearGradient>
<linearGradient id="paint9_linear_3_413" x1="465.335" y1="382.396" x2="465.335" y2="428.689" gradientUnits="userSpaceOnUse">
<stop stop-color="#F8BCBC"/>
<stop offset="1" stop-color="#231C21"/>
</linearGradient>
<linearGradient id="paint10_linear_3_413" x1="465.867" y1="381.864" x2="465.867" y2="431.083" gradientUnits="userSpaceOnUse">
<stop stop-color="#F8BCBC"/>
<stop offset="1" stop-color="#231C21"/>
</linearGradient>
<linearGradient id="paint11_linear_3_413" x1="466.398" y1="381.066" x2="466.398" y2="434.01" gradientUnits="userSpaceOnUse">
<stop stop-color="#F8BCBC"/>
<stop offset="1" stop-color="#231C21"/>
</linearGradient>
<linearGradient id="paint12_linear_3_413" x1="467.064" y1="380.534" x2="467.064" y2="436.936" gradientUnits="userSpaceOnUse">
<stop stop-color="#F8BCBC"/>
<stop offset="1" stop-color="#231C21"/>
</linearGradient>
<linearGradient id="paint13_linear_3_413" x1="467.863" y1="380.268" x2="467.863" y2="440.129" gradientUnits="userSpaceOnUse">
<stop stop-color="#F8BCBC"/>
<stop offset="1" stop-color="#231C21"/>
</linearGradient>
<linearGradient id="paint14_linear_3_413" x1="468.794" y1="379.736" x2="468.794" y2="443.588" gradientUnits="userSpaceOnUse">
<stop stop-color="#F8BCBC"/>
<stop offset="1" stop-color="#231C21"/>
</linearGradient>
<linearGradient id="paint15_linear_3_413" x1="469.858" y1="379.47" x2="469.858" y2="447.312" gradientUnits="userSpaceOnUse">
<stop stop-color="#F8BCBC"/>
<stop offset="1" stop-color="#231C21"/>
</linearGradient>
<linearGradient id="paint16_linear_3_413" x1="470.922" y1="379.204" x2="470.922" y2="451.303" gradientUnits="userSpaceOnUse">
<stop stop-color="#F8BCBC"/>
<stop offset="1" stop-color="#231C21"/>
</linearGradient>
<linearGradient id="paint17_linear_3_413" x1="472.119" y1="379.204" x2="472.119" y2="455.56" gradientUnits="userSpaceOnUse">
<stop stop-color="#F8BCBC"/>
<stop offset="1" stop-color="#231C21"/>
</linearGradient>
<linearGradient id="paint18_linear_3_413" x1="473.449" y1="379.47" x2="473.449" y2="460.083" gradientUnits="userSpaceOnUse">
<stop stop-color="#F8BCBC"/>
<stop offset="1" stop-color="#231C21"/>
</linearGradient>
<linearGradient id="paint19_linear_3_413" x1="474.913" y1="379.736" x2="474.913" y2="464.872" gradientUnits="userSpaceOnUse">
<stop stop-color="#F8BCBC"/>
<stop offset="1" stop-color="#231C21"/>
</linearGradient>
<linearGradient id="paint20_linear_3_413" x1="476.641" y1="380.268" x2="476.641" y2="470.193" gradientUnits="userSpaceOnUse">
<stop stop-color="#F8BCBC"/>
<stop offset="1" stop-color="#231C21"/>
</linearGradient>
<linearGradient id="paint21_linear_3_413" x1="478.371" y1="377.075" x2="478.371" y2="475.514" gradientUnits="userSpaceOnUse">
<stop stop-color="#F8BCBC"/>
<stop offset="1" stop-color="#231C21"/>
</linearGradient>
<linearGradient id="paint22_linear_3_413" x1="480.367" y1="373.617" x2="480.367" y2="481.633" gradientUnits="userSpaceOnUse">
<stop stop-color="#F8BCBC"/>
<stop offset="1" stop-color="#231C21"/>
</linearGradient>
<linearGradient id="paint23_linear_3_413" x1="482.628" y1="369.892" x2="482.628" y2="487.752" gradientUnits="userSpaceOnUse">
<stop stop-color="#F8BCBC"/>
<stop offset="1" stop-color="#231C21"/>
</linearGradient>
<linearGradient id="paint24_linear_3_413" x1="485.022" y1="365.635" x2="485.022" y2="494.403" gradientUnits="userSpaceOnUse">
<stop stop-color="#F8BCBC"/>
<stop offset="1" stop-color="#231C21"/>
</linearGradient>
<linearGradient id="paint25_linear_3_413" x1="487.55" y1="361.112" x2="487.55" y2="501.32" gradientUnits="userSpaceOnUse">
<stop stop-color="#F8BCBC"/>
<stop offset="1" stop-color="#231C21"/>
</linearGradient>
<linearGradient id="paint26_linear_3_413" x1="490.477" y1="356.323" x2="490.477" y2="508.77" gradientUnits="userSpaceOnUse">
<stop stop-color="#F8BCBC"/>
<stop offset="1" stop-color="#231C21"/>
</linearGradient>
<linearGradient id="paint27_linear_3_413" x1="493.536" y1="351.002" x2="493.536" y2="516.751" gradientUnits="userSpaceOnUse">
<stop stop-color="#F8BCBC"/>
<stop offset="1" stop-color="#231C21"/>
</linearGradient>
<linearGradient id="paint28_linear_3_413" x1="497.128" y1="345.149" x2="497.128" y2="524.999" gradientUnits="userSpaceOnUse">
<stop stop-color="#F8BCBC"/>
<stop offset="1" stop-color="#231C21"/>
</linearGradient>
<linearGradient id="paint29_linear_3_413" x1="500.72" y1="338.498" x2="500.72" y2="533.778" gradientUnits="userSpaceOnUse">
<stop stop-color="#F8BCBC"/>
<stop offset="1" stop-color="#231C21"/>
</linearGradient>
<linearGradient id="paint30_linear_3_413" x1="504.711" y1="331.581" x2="504.711" y2="542.824" gradientUnits="userSpaceOnUse">
<stop stop-color="#F8BCBC"/>
<stop offset="1" stop-color="#231C21"/>
</linearGradient>
<linearGradient id="paint31_linear_3_413" x1="509.1" y1="324.131" x2="509.1" y2="552.402" gradientUnits="userSpaceOnUse">
<stop stop-color="#F8BCBC"/>
<stop offset="1" stop-color="#231C21"/>
</linearGradient>
<linearGradient id="paint32_linear_3_413" x1="513.756" y1="315.884" x2="513.756" y2="562.512" gradientUnits="userSpaceOnUse">
<stop stop-color="#F8BCBC"/>
<stop offset="1" stop-color="#231C21"/>
</linearGradient>
<linearGradient id="paint33_linear_3_413" x1="518.944" y1="307.104" x2="518.944" y2="573.154" gradientUnits="userSpaceOnUse">
<stop stop-color="#F8BCBC"/>
<stop offset="1" stop-color="#231C21"/>
</linearGradient>
<linearGradient id="paint34_linear_3_413" x1="524.398" y1="297.526" x2="524.398" y2="584.062" gradientUnits="userSpaceOnUse">
<stop stop-color="#F8BCBC"/>
<stop offset="1" stop-color="#231C21"/>
</linearGradient>
<linearGradient id="paint35_linear_3_413" x1="530.517" y1="287.417" x2="530.517" y2="595.502" gradientUnits="userSpaceOnUse">
<stop stop-color="#F8BCBC"/>
<stop offset="1" stop-color="#231C21"/>
</linearGradient>
<linearGradient id="paint36_linear_3_413" x1="531.049" y1="276.242" x2="531.049" y2="607.474" gradientUnits="userSpaceOnUse">
<stop stop-color="#F8BCBC"/>
<stop offset="1" stop-color="#231C21"/>
</linearGradient>
<linearGradient id="paint37_linear_3_413" x1="531.315" y1="264.27" x2="531.315" y2="619.713" gradientUnits="userSpaceOnUse">
<stop stop-color="#F8BCBC"/>
<stop offset="1" stop-color="#231C21"/>
</linearGradient>
<linearGradient id="paint38_linear_3_413" x1="531.182" y1="251.5" x2="531.182" y2="632.483" gradientUnits="userSpaceOnUse">
<stop stop-color="#F8BCBC"/>
<stop offset="1" stop-color="#231C21"/>
</linearGradient>
<linearGradient id="paint39_linear_3_413" x1="530.517" y1="237.665" x2="530.517" y2="645.519" gradientUnits="userSpaceOnUse">
<stop stop-color="#F8BCBC"/>
<stop offset="1" stop-color="#231C21"/>
</linearGradient>
<linearGradient id="paint40_linear_3_413" x1="529.319" y1="222.766" x2="529.319" y2="659.088" gradientUnits="userSpaceOnUse">
<stop stop-color="#F8BCBC"/>
<stop offset="1" stop-color="#231C21"/>
</linearGradient>
<linearGradient id="paint41_linear_3_413" x1="527.325" y1="206.803" x2="527.325" y2="672.656" gradientUnits="userSpaceOnUse">
<stop stop-color="#F8BCBC"/>
<stop offset="1" stop-color="#231C21"/>
</linearGradient>
<linearGradient id="paint42_linear_3_413" x1="524.797" y1="189.776" x2="524.797" y2="686.757" gradientUnits="userSpaceOnUse">
<stop stop-color="#F8BCBC"/>
<stop offset="1" stop-color="#231C21"/>
</linearGradient>
<linearGradient id="paint43_linear_3_413" x1="521.339" y1="171.685" x2="521.339" y2="701.124" gradientUnits="userSpaceOnUse">
<stop stop-color="#F8BCBC"/>
<stop offset="1" stop-color="#231C21"/>
</linearGradient>
<linearGradient id="paint44_linear_3_413" x1="516.949" y1="152.263" x2="516.949" y2="715.49" gradientUnits="userSpaceOnUse">
<stop stop-color="#F8BCBC"/>
<stop offset="1" stop-color="#231C21"/>
</linearGradient>
<linearGradient id="paint45_linear_3_413" x1="511.628" y1="131.511" x2="511.628" y2="729.857" gradientUnits="userSpaceOnUse">
<stop stop-color="#F8BCBC"/>
<stop offset="1" stop-color="#231C21"/>
</linearGradient>
<linearGradient id="paint46_linear_3_413" x1="504.977" y1="109.695" x2="504.977" y2="744.49" gradientUnits="userSpaceOnUse">
<stop stop-color="#F8BCBC"/>
<stop offset="1" stop-color="#231C21"/>
</linearGradient>
<linearGradient id="paint47_linear_3_413" x1="496.862" y1="86.2828" x2="496.862" y2="758.857" gradientUnits="userSpaceOnUse">
<stop stop-color="#F8BCBC"/>
<stop offset="1" stop-color="#231C21"/>
</linearGradient>
<linearGradient id="paint48_linear_3_413" x1="487.55" y1="61.2742" x2="487.55" y2="772.957" gradientUnits="userSpaceOnUse">
<stop stop-color="#F8BCBC"/>
<stop offset="1" stop-color="#231C21"/>
</linearGradient>
<linearGradient id="paint49_linear_3_413" x1="476.375" y1="34.9352" x2="476.375" y2="786.526" gradientUnits="userSpaceOnUse">
<stop stop-color="#F8BCBC"/>
<stop offset="1" stop-color="#231C21"/>
</linearGradient>
<linearGradient id="paint50_linear_3_413" x1="463.606" y1="7" x2="463.606" y2="799.828" gradientUnits="userSpaceOnUse">
<stop stop-color="#F8BCBC"/>
<stop offset="1" stop-color="#231C21"/>
</linearGradient>
</defs>
</svg>
