<svg width="1648" height="1632" viewBox="0 0 1648 1632" fill="none" xmlns="http://www.w3.org/2000/svg">
<g clip-path="url(#clip0_417_6)">
<path d="M0 1021.2C55.5756 1018.53 102.601 997.022 141.077 956.676C179.552 916.33 198.79 868.369 198.79 812.794C198.79 868.369 218.028 916.33 256.503 956.676C294.978 997.022 342.004 1018.53 397.58 1021.2C342.004 1023.87 294.978 1045.38 256.503 1085.73C218.028 1126.07 198.79 1174.04 198.79 1229.61C198.79 1174.04 179.552 1126.07 141.077 1085.73C102.601 1045.38 55.5756 1023.87 0 1021.2ZM198.79 405.595C306.735 400.251 398.248 358.436 473.328 280.149C548.409 201.862 585.949 108.479 585.949 0C585.949 108.479 623.623 201.862 698.971 280.149C774.318 358.436 865.965 400.251 973.91 405.595C902.837 408.802 837.642 428.974 778.326 466.114C719.01 503.253 672.118 552.417 637.65 613.603C603.183 674.79 585.949 741.187 585.949 812.794C585.949 703.78 548.409 609.996 473.328 531.442C398.248 452.888 306.735 410.939 198.79 405.595ZM482.546 1326.6C563.772 1322.86 632.707 1291.47 689.352 1232.42C745.996 1173.37 774.318 1102.96 774.318 1021.2C774.318 1102.96 802.507 1173.37 858.884 1232.42C915.261 1291.47 984.063 1322.86 1065.29 1326.6C984.063 1330.34 915.261 1361.74 858.884 1420.79C802.507 1479.84 774.318 1550.24 774.318 1632C774.318 1550.24 745.996 1479.84 689.352 1420.79C632.707 1361.74 563.772 1330.34 482.546 1326.6ZM1065.29 921.006C1146.51 917.265 1215.18 886.004 1271.29 827.222C1327.4 768.44 1355.46 697.902 1355.46 615.607C1355.46 697.367 1383.78 767.772 1440.42 826.821C1497.07 885.87 1566 917.265 1647.23 921.006C1566 924.747 1497.07 956.008 1440.42 1014.79C1383.78 1073.57 1355.46 1143.84 1355.46 1225.6C1355.46 1143.84 1327.4 1073.57 1271.29 1014.79C1215.18 956.008 1146.51 924.747 1065.29 921.006Z" fill="#FFD233"/>
</g>
<defs>
<clipPath id="clip0_417_6">
<rect width="1647.23" height="1632" fill="white"/>
</clipPath>
</defs>
</svg>
